<svg xmlns="http://www.w3.org/2000/svg" version="1.0" width="1024.000000pt" height="1024.000000pt" viewBox="0 0 1024.000000 1024.000000" preserveAspectRatio="xMidYMid meet">

<g transform="translate(0.000000,1024.000000) scale(0.100000,-0.100000)" fill="#2738ff" stroke="none">
<path d="M4965 8986 c-95 -22 -154 -49 -333 -153 -586 -338 -1057 -610 -1137 -658 -38 -23 -308 -180 -600 -350 -954 -555 -926 -537 -1011 -643 -52 -65 -115 -188 -141 -277 -17 -56 -18 -162 -21 -1615 -3 -1739 -7 -1629 68 -1785 82 -169 126 -205 530 -440 30 -17 143 -83 250 -147 219 -129 990 -580 1090 -638 36 -20 126 -72 200 -115 74 -43 182 -106 240 -140 507 -302 706 -414 790 -442 59 -21 100 -27 195 -31 188 -7 266 18 520 168 88 51 261 152 385 223 124 71 277 160 340 197 124 74 456 267 665 387 72 42 193 113 270 158 120 71 285 167 555 325 36 21 133 77 215 125 83 48 174 103 203 122 115 76 218 228 259 383 17 61 18 169 18 1620 0 1471 -1 1559 -18 1633 -37 155 -146 321 -265 405 -31 21 -136 84 -232 139 -183 105 -554 319 -725 418 -55 32 -140 82 -190 110 -390 224 -708 407 -922 532 -636 368 -810 462 -893 482 -84 19 -236 23 -305 7z m278 -434 c29 -10 122 -59 207 -109 85 -50 247 -143 360 -208 113 -65 295 -169 405 -233 110 -63 205 -118 210 -122 6 -4 163 -95 350 -203 311 -178 926 -533 1086 -628 119 -69 189 -168 208 -291 14 -88 15 -2861 1 -2959 -12 -88 -56 -181 -108 -232 -34 -32 -172 -117 -432 -264 -336 -191 -815 -468 -1315 -761 -60 -35 -177 -102 -260 -150 -82 -47 -202 -115 -265 -152 -63 -36 -178 -103 -256 -148 -162 -94 -234 -122 -315 -122 -95 0 -151 18 -266 84 -185 107 -828 482 -1043 608 -113 66 -257 151 -320 188 -63 37 -207 120 -320 185 -113 65 -284 164 -380 220 -96 56 -244 141 -327 189 -202 116 -267 188 -293 326 -6 34 -10 577 -10 1504 0 1602 -3 1514 63 1624 53 89 78 107 452 325 138 80 536 311 885 515 349 203 667 387 705 409 82 47 454 264 572 334 46 27 109 58 140 68 76 27 195 28 266 3z" fill="#2738ff"/>
<path d="M2840 5265 l0 -1625 358 2 357 3 3 648 2 647 530 0 530 0 0 315 0 315 -530 0 -530 0 0 350 0 350 690 0 690 0 0 310 0 310 -1050 0 -1050 0 0 -1625z" fill="#2738ff"/>
<path d="M5682 6879 c-195 -38 -362 -166 -451 -346 -56 -113 -61 -152 -61 -543 0 -393 5 -434 62 -544 44 -83 165 -204 244 -244 57 -29 287 -104 649 -212 157 -47 280 -84 470 -142 231 -71 235 -78 235 -337 0 -99 -4 -191 -10 -205 -5 -14 -24 -35 -42 -46 -32 -20 -46 -20 -428 -18 -430 3 -425 3 -460 61 -18 28 -20 51 -20 200 l0 167 -351 0 -350 0 3 -287 4 -288 31 -73 c71 -167 172 -267 334 -333 112 -46 165 -49 814 -49 507 0 618 3 681 15 221 46 385 194 445 403 17 61 19 102 19 449 0 245 -4 401 -11 435 -18 86 -69 177 -138 250 -110 117 -114 119 -751 338 -157 54 -370 128 -474 164 -104 36 -191 66 -193 66 -1 0 -16 19 -33 42 l-30 41 0 167 c0 92 5 180 10 197 22 62 26 63 469 63 263 0 408 -4 424 -11 46 -21 52 -43 55 -216 l4 -163 335 0 335 0 -4 268 c-4 263 -4 268 -31 336 -80 203 -227 334 -435 387 -71 18 -113 19 -691 18 -339 -1 -636 -5 -659 -10z" fill="#2738ff"/>
</g>
</svg>