<svg xmlns="http://www.w3.org/2000/svg" width="1365.333" height="1365.333" version="1.0" viewBox="0 0 1024 1024"><g fill="#2738ff"><path d="M496.5 125.4c-9.5 2.2-15.4 4.9-33.3 15.3-58.6 33.8-105.7 61-113.7 65.8-3.8 2.3-30.8 18-60 35-95.4 55.5-92.6 53.7-101.1 64.3-5.2 6.5-11.5 18.8-14.1 27.7-1.7 5.6-1.8 16.2-2.1 161.5-.3 173.9-.7 162.9 6.8 178.5 8.2 16.9 12.6 20.5 53 44 3 1.7 14.3 8.3 25 14.7 21.9 12.9 99 58 109 63.8 3.6 2 12.6 7.2 20 11.5s18.2 10.6 24 14c50.7 30.2 70.6 41.4 79 44.2 5.9 2.1 10 2.7 19.5 3.1 18.8.7 26.6-1.8 52-16.8 8.8-5.1 26.1-15.2 38.5-22.3s27.7-16 34-19.7c12.4-7.4 45.6-26.7 66.5-38.7 7.2-4.2 19.3-11.3 27-15.8 12-7.1 28.5-16.7 55.5-32.5 3.6-2.1 13.3-7.7 21.5-12.5 8.3-4.8 17.4-10.3 20.3-12.2 11.5-7.6 21.8-22.8 25.9-38.3 1.7-6.1 1.8-16.9 1.8-162 0-147.1-.1-155.9-1.8-163.3-3.7-15.5-14.6-32.1-26.5-40.5-3.1-2.1-13.6-8.4-23.2-13.9-18.3-10.5-55.4-31.9-72.5-41.8-5.5-3.2-14-8.2-19-11-39-22.4-70.8-40.7-92.2-53.2-63.6-36.8-81-46.2-89.3-48.2-8.4-1.9-23.6-2.3-30.5-.7m27.8 43.4c2.9 1 12.2 5.9 20.7 10.9s24.7 14.3 36 20.8 29.5 16.9 40.5 23.3c11 6.3 20.5 11.8 21 12.2.6.4 16.3 9.5 35 20.3 31.1 17.8 92.6 53.3 108.6 62.8 11.9 6.9 18.9 16.8 20.8 29.1 1.4 8.8 1.5 286.1.1 295.9-1.2 8.8-5.6 18.1-10.8 23.2-3.4 3.2-17.2 11.7-43.2 26.4-33.6 19.1-81.5 46.8-131.5 76.1-6 3.5-17.7 10.2-26 15-8.2 4.7-20.2 11.5-26.5 15.2-6.3 3.6-17.8 10.3-25.6 14.8-16.2 9.4-23.4 12.2-31.5 12.2-9.5 0-15.1-1.8-26.6-8.4-18.5-10.7-82.8-48.2-104.3-60.8-11.3-6.6-25.7-15.1-32-18.8s-20.7-12-32-18.5-28.4-16.4-38-22-24.4-14.1-32.7-18.9C226.1 668 219.6 660.8 217 647c-.6-3.4-1-57.7-1-150.4 0-160.2-.3-151.4 6.3-162.4 5.3-8.9 7.8-10.7 45.2-32.5 13.8-8 53.6-31.1 88.5-51.5 34.9-20.3 66.7-38.7 70.5-40.9 8.2-4.7 45.4-26.4 57.2-33.4 4.6-2.7 10.9-5.8 14-6.8 7.6-2.7 19.5-2.8 26.6-.3"/><path d="M284 497.5V660l35.8-.2 35.7-.3.3-64.8.2-64.7h106v-63H356v-70h138v-62H284zM568.2 336.1c-19.5 3.8-36.2 16.6-45.1 34.6-5.6 11.3-6.1 15.2-6.1 54.3 0 39.3.5 43.4 6.2 54.4 4.4 8.3 16.5 20.4 24.4 24.4 5.7 2.9 28.7 10.4 64.9 21.2 15.7 4.7 28 8.4 47 14.2 23.1 7.1 23.5 7.8 23.5 33.7 0 9.9-.4 19.1-1 20.5-.5 1.4-2.4 3.5-4.2 4.6-3.2 2-4.6 2-42.8 1.8-43-.3-42.5-.3-46-6.1-1.8-2.8-2-5.1-2-20V557h-70.1l.3 28.7.4 28.8 3.1 7.3c7.1 16.7 17.2 26.7 33.4 33.3 11.2 4.6 16.5 4.9 81.4 4.9 50.7 0 61.8-.3 68.1-1.5 22.1-4.6 38.5-19.4 44.5-40.3 1.7-6.1 1.9-10.2 1.9-44.9 0-24.5-.4-40.1-1.1-43.5-1.8-8.6-6.9-17.7-13.8-25-11-11.7-11.4-11.9-75.1-33.8-15.7-5.4-37-12.8-47.4-16.4s-19.1-6.6-19.3-6.6c-.1 0-1.6-1.9-3.3-4.2l-3-4.1V423c0-9.2.5-18 1-19.7 2.2-6.2 2.6-6.3 46.9-6.3 26.3 0 40.8.4 42.4 1.1 4.6 2.1 5.2 4.3 5.5 21.6l.4 16.3h67l-.4-26.8c-.4-26.3-.4-26.8-3.1-33.6-8-20.3-22.7-33.4-43.5-38.7-7.1-1.8-11.3-1.9-69.1-1.8-33.9.1-63.6.5-65.9 1"/></g></svg>