<svg xmlns="http://www.w3.org/2000/svg" version="1.1" xmlns:xlink="http://www.w3.org/1999/xlink" xmlns:svgjs="http://svgjs.dev/svgjs" width="1000" height="1000"><style>
    #light-icon {
      display: inline;
    }
    #dark-icon {
      display: none;
    }

    @media (prefers-color-scheme: dark) {
      #light-icon {
        display: none;
      }
      #dark-icon {
        display: inline;
      }
    }
  </style><g id="light-icon"><svg xmlns="http://www.w3.org/2000/svg" version="1.1" xmlns:xlink="http://www.w3.org/1999/xlink" xmlns:svgjs="http://svgjs.dev/svgjs" width="1000" height="1000"><g clip-path="url(#SvgjsClipPath1132)"><rect width="1000" height="1000" fill="#ffffff"></rect><g transform="matrix(1,0,0,1,0,0)"><svg xmlns="http://www.w3.org/2000/svg" version="1.1" xmlns:xlink="http://www.w3.org/1999/xlink" xmlns:svgjs="http://svgjs.dev/svgjs" width="1000" height="1000"><svg id="Layer_1" xmlns="http://www.w3.org/2000/svg" version="1.1" viewBox="0 0 1000 1000">
  <!-- Generator: Adobe Illustrator 29.2.1, SVG Export Plug-In . SVG Version: 2.1.0 Build 116)  -->
  <defs>
    <style>
      .st0 {
        fill: #0c1b60;
      }
    </style>
  <clipPath id="SvgjsClipPath1132"><rect width="1000" height="1000" x="0" y="0" rx="500" ry="500"></rect></clipPath></defs>
  <path class="st0" d="M447.5,161.6c-25,2.8-55,9.9-79,18.7-63.8,23.2-121.7,67.7-161.5,124.1-6.8,9.6-9.2,12.2-14.4,15.4-8.1,5.2-17.9,10.1-35.6,17.9-16.8,7.4-21.3,10.1-24,14.6-3.8,6.2-1.5,13.2,7.5,22.2,4.9,4.8,18.2,14.6,21.5,15.7s-.6,5.8-2.9,13.4c-16.8,55.9-18.5,119.6-4.6,176.2,6.8,27.6,14.9,49.4,27.9,74.7,18,35.3,37,60.9,65.7,89,16.4,16,28.2,25.7,45.9,37.8,47,32,99.7,51.4,156,57.3,21.3,2.2,63.5,1.5,83.2-1.5,97.4-14.6,181.4-67.6,235.3-148.6,31-46.6,48.2-93.9,55.6-153,1.9-15,1.6-59-.5-75-10-77.2-41.4-142.9-94.2-197.5-52.7-54.3-119.9-88.7-196.2-100.1-18.4-2.8-66.2-3.5-85.7-1.3ZM489.9,186.9c-6.7,1.8-14.9,3.1-22,3.5-54.5,3.3-106.1,20.6-151.9,50.9-5.8,3.8-11.2,7.5-12,8.2s-3.9,1.5-6.8,1.9-6,.9-7,1.2c-3.6,1.1,5.9-6.2,21.5-16.6,35.8-23.8,78.5-40.8,120.8-47.9,18.3-3.1,27.3-3.8,48.5-3.9h19.5l-10.6,2.7ZM574,193.9c10.1,1.8,24.6,5.4,25.6,6.4s-6.1.1-13.9-.1c-17.7-.5-23,.7-37.7,8.5-16,8.7-19,10-24.9,10.7-6.8.9-17.9,4.7-24,8.3-6.5,3.8-15.3,12.4-20.7,20.3-4,5.9-5.5,7.3-11.8,10.4-3.9,1.9-12.2,6.9-18.4,11-10.8,7.2-11.9,7.7-23,10.2-13.8,3.1-19.6,5.6-27.7,12.1-8.8,7.1-13.8,10.4-25.3,16.3-13.2,6.9-16.5,9.8-25.8,22.8-10.2,14.2-12,16.1-25.4,25.5-6.3,4.5-15.2,11.7-19.7,16-7.1,6.8-8.4,7.7-10.2,6.8-1.1-.6-2.4-1.1-3-1.1-1.7,0-1.3,3.1.5,4.5,1.4,1,1,1.9-3.4,7.6-2.8,3.5-7.2,9.1-9.8,12.4-4.4,5.6-4.6,5.8-4.1,2.8,1.1-5.8,9.4-25.3,15.3-35.7,20.9-37.4,72.7-101,102.4-125.8,25.6-21.3,54.5-35.3,92.5-44.7,33.1-8.1,65.3-9.9,92.5-5.2ZM433,203.6c-3.6,1.3-10.8,4.4-16,6.9-5.2,2.4-13.3,5.6-18,7-22.5,7-44.8,17.1-65.4,29.5-11.7,7.1-11.9,7.2-15.8,6.1-2.1-.7-3.6-1.6-3.3-2.1.9-1.4,20.3-13.3,31.5-19.3,21.7-11.5,49.6-21.9,73.1-27,6.2-1.4,12.3-2.8,13.4-3,6-1.4,6.3-.3.5,1.9ZM595.3,214.1c2.9.6,9.4,2.5,14.6,4.2,14.6,5,21.7,12.9,24.1,27,1.2,6.6.6,12.4-1.9,18.9-1.8,4.7-7.9,10.4-13.9,13.1-4.5,2-20.8,5.7-25.4,5.7s-.8.5-.8,1.1,3.4,1,11.3.7c13.4-.5,20.8-3,27.3-9,5.5-5,10.3-12.6,11.1-17.2.5-3.5.7-3.6,2.4-2,4.5,4.1,3.4,8.6-7.1,26.9-6.6,11.6-4.8,20.2,5.4,26.6,2.8,1.7,2.9,1.9,2.7,9.6-.4,13.3,5.3,23.5,15.9,28.8,4.8,2.5,14.5,3.1,19.8,1.2,3.4-1.2,4.2-1.2,4.2-.2,0,2.2-6.3,9.8-10.5,12.6-4.7,3.2-5.5,5-4.9,10.9.4,3.7.3,4.2-.6,2.7-.7-1.1-1.3-4.9-1.4-8.5-.1-6.2,0-6.6,2.3-7.2,1.3-.3,2.9-1.3,3.5-2.3,1.6-2.5-.7-4.1-9.4-6.7-9.8-2.9-11.7-3.9-18.4-10.1-5.3-4.8-14.6-15.9-14.6-17.4s.6-.5,1.3-.4c.6.1,2.7.1,4.5,0,5.3-.2,3.8-2.6-2.8-4.4-5.1-1.5-7.3-2.9-14.6-9.7-10-9.2-14.2-11-26.5-11s-8.4-.4-14.1-3.5c-3.4-1.9-8.4-4.5-11-5.7-2.6-1.3-4.8-2.6-4.8-2.9s4.4-2.3,9.8-4.4c11-4.3,19.2-8.4,19.2-9.7s-.3-1-8.4.7c-10.7,2.3-25.5,7.3-32.3,11-9.1,5-18.2,7.5-27.1,7.5h-7.6l4.7-4.4c2.6-2.6,6.2-7.6,8.3-11.8,4.5-8.9,11.3-19.6,14.2-22.2,2.4-2.1,2.9-4.6.9-4.6s-7.5,4.4-10.4,8.2c-1.3,1.8-4.3,6.4-6.6,10.3-8.7,14.9-19.8,22.9-36.4,26.1-9.6,1.9-14.5,1.3-26.5-3-7.2-2.6-8.8-3.6-7.3-4.1,6.3-2.3,18.5-8.5,18.5-9.4,0-1.5-.4-1.4-9.4,1.4-4.3,1.4-8.1,2.4-8.3,2.2-.9-1,10-9,16.8-12.3,10.8-5.3,13.6-7.7,17-14.9,4-8.6,10.6-14.5,19.3-17.3,11-3.6,12-3.1,5.6,3.1-3,2.9-9.3,9.2-14,14.1s-10.8,10.6-13.7,12.7c-6.3,4.7-7.1,5.9-4,5.9,6.2,0,14.6-6,34.2-24.7,19.5-18.5,27.2-24.2,41.4-30.6,8.4-3.7,21-4.3,34.4-1.6ZM653.3,222.8c3.4,1.6,7.7,4.1,9.5,5.7,3.3,2.7,7.2,9.2,7.2,11.8s2,5.2,4.5,10,4.5,9.6,4.5,10.7.5,2.2,1,2.5c.6.4,1-1.3,1-4.5v-5.1l4.1,3.3c4.7,3.8,11.9,13.4,14.9,19.9,2.3,5.2,2.6,12.6.5,15.6-.9,1.2-3.1,2.4-5.3,2.8-5.1.8-10.6,5.4-15.3,12.8-4.4,6.8-5.1,12.5-2.3,17.8.8,1.7,1.3,3.8.9,4.7-.4,1.3-.3,1.4.5.6s3.1-.9,5.9-.6c4.6.4,5.1.2,9.5-3.8,4.7-4.3,7.1-9.5,6.4-14-.5-3.9-2.3-3.3-4.7,1.7-1.7,3.6-2.5,4.3-3.2,3.2-2-3.1-1-7.8,2.5-11.7l3.4-3.7,2.8,2.5c7.3,6.7,7,19.6-.5,26.4-2.5,2.3-2.6,4.2-.4,8.6.9,1.9,1.7,5.5,1.8,8.2.2,4.7.5,5.2,6.8,11.2,5.5,5.3,6.8,7.1,8.2,12.1,1.5,5,1.6,7,.6,13.9-.6,4.5-1.1,12.2-1.1,17.2,0,7.8-.3,9.6-2.3,12.5-1.2,1.8-3.3,3.6-4.7,4-3.9,1.1-11.1,1-15.3-.2-4.5-1.2-6.1-.5-4.7,2,1.4,2.7,7.2,5.1,12.3,5.1s6.8,2.2,4.6,14.4c-.6,3.4-1.3,7.1-1.5,8.2-.6,3.5-4.9,4.6-12.4,3-4.7-1-7.2-1.1-9-.3-1.4.6-4.9,1.6-7.7,2.2-4.8,1-5.3,1-5.3-.6s1.1-2,2.9-2.4c1.7-.3,4.6-1.9,6.6-3.5l3.7-2.9,3.4,1.8c1.9,1.1,4.4,1.7,5.5,1.4,5.8-1.6,8.1-12.2,3.5-16.8s-5-3.1-8.2-4.1c-6.9-2-14.1-8-13-10.9.6-1.7.8-1.6,3.1.5,4.1,3.9,4.2,1.2.3-6.1-2.7-4.7-3.8-8.1-3.8-10.9v-4.2l4.1,3.5c6.8,5.9,16.1,7,26.2,3,2-.8,3.7-1.9,3.7-2.3s-4.4-.9-9.8-1.2c-7.9-.3-10.4-.8-13.4-2.6-4.4-2.7-5.5-5.5-3.5-8.5s2-4.6,2.6-7.6c.7-3.1,2.8-7.9,5-11.2,5.3-7.9,6-12.5,2.9-18.7l-2.3-4.7-12-.5c-13.2-.6-15.8-1.5-21.1-7.2-4.7-4.9-6.7-9.6-6.8-15.8-.1-7.9,1.2-9.2,3.6-3.8,2.2,4.8,5.5,8.8,7.4,8.8s.7-1.3-.8-4.8c-2.9-6.3-3.1-19-.5-24.3,6.1-12.3,22.6-18.5,35.6-13.3,5.1,2,6.1,1.3,3.5-2.4-3.6-4.8-7.9-6.4-16.4-5.9-13.1.7-23.6,7.3-28.6,18.1-1.3,2.8-2.4,6.5-2.4,8.2,0,4.9-2.2,6-6,3.2-4.7-3.4-7.4-8.4-7.4-13.7.1-6.5,1.9-9.7,13.8-23.9,5.4-6.4,7.6-11.7,7.6-18.2,0-11.3-9-23.5-19.7-26.6-3-.9-6.5-1.3-7.8-1-1.4.4-2.8,0-3.6-1-1.2-1.5-.5-1.6,8.4-1.1,8,.5,11,1.1,16,3.5ZM357.8,252.7c-3,3.2-6.9,7.6-8.5,9.9-3.7,5.3-8,10.4-8.7,10.4s-.6-.5-.6-1.2-1.2-2.7-2.6-4.5c-2.2-2.9-2.4-3.7-1.3-4.8,1.5-1.4,25.9-15.5,26.8-15.5s-2,2.6-5.1,5.7ZM316.3,264.8c6.2,2.8,11.9,8.2,14.6,14.1l2.4,4.9-8.8,12.7c-6.1,8.7-9.1,12.3-9.9,11.5s-3.6-1-6.9-1h-5.9l3.2-2.6c2.7-2.3,2.9-2.9,1.8-4.1-1.2-1.1-2.1-1.1-6,.7-3.4,1.5-5.7,1.8-9,1.4-3.6-.5-4.6-.3-5.1,1-.8,1.9,2.5,5.6,4.9,5.6s2.9,1.1,4.6,2.5c1.6,1.4,4.2,2.5,5.6,2.5s3.1.8,3.9,2.6c1.5,3.1,1.8,2.4-7.8,14.4-4.2,5.2-9.7,12.6-12.4,16.5-2.6,3.8-5.1,7-5.6,6.9-2.5-.3-2.9-.5-2.9-1.3s.9-1.1,2.1-1.4c4.1-1.1,1.3-3.2-4.9-3.8-3.4-.3-6.5-.9-6.8-1.2s1.2-1.1,3.5-1.7c3-.8,4.1-1.6,4.1-3s-.9-2.1-3.7-2.5c-6-.9-16.3-3.7-16.8-4.4-.2-.4,1.8-.8,4.5-.9,5.4-.1,9-1.5,9-3.6s-16.7-4.3-19.4-3.3c-2.8,1.1-1.9,4.7,1.5,6.1,2.5,1.1,2.8,1.4,1.4,2-1.2.4-1.6,1.4-1.3,3,.5,2.2-.9,3.1-19.1,11.9-20.6,10.1-32.4,14.6-45.6,17.7-16.5,3.9-32.6,3.5-38.5-.9-3.1-2.3-3.8-6.6-1.3-9.3.9-1.1,9-5.5,17.8-9.8,30.2-14.8,45.7-25.1,82.5-55,27.8-22.5,33.8-26.4,46.5-29.7,6.7-1.7,18.2-1,23.8,1.5ZM729.6,299.1c63.7,76.5,87.2,181.2,62.5,278.5-30.7,120.9-131,213.6-253.6,234.3-20.9,3.5-34.4,4.4-61,3.8-40.9-.9-71.3-6.9-108-21.4-90.9-36-161.2-113-188-206.2-8.9-30.9-11.8-52.4-11.9-86.6-.1-27.3.7-37,4.9-60,2-10.8,9.9-41.2,10.9-42.3.2-.1,2,.5,4,1.5,2.6,1.2,3.5,2.2,3.1,3.2-3.7,9.4-10,37.9-12.7,57.1-1.8,12.7-1.7,62.1,0,75,7.9,56.2,27.3,104,59.8,147.3,50.5,67.2,125.9,110.9,208.8,121.2,93.1,11.5,186-19.9,253.4-85.9,88.1-86.1,116.2-214,72.7-330.1-11.2-29.9-28.6-59.7-50.4-86.2-9.2-11.2-12.2-16.5-12.1-21.3.1-1.7,6.9,5.4,17.6,18.1ZM444,295.3c7.1,5.6,10.2,10.8,9.6,16.2-.6,4.9-3.5,7.5-8.3,7.5s-9.3,4.5-9.3,9.4-1.3,4.6-3.4-.3c-2.2-4.7-1.9-14,.4-15.8,1.2-.9,1.3-1.4.3-2.4-2.2-2.2-7.5-1.4-16.2,2.5-8,3.7-8.8,3.8-15.5,3.2l-7-.7,2.4,2.6c2.9,3.1,9.1,4.9,14.3,4.1,2.1-.4,6.9-2.2,10.6-4l6.8-3.4-2.4,4.5c-1.3,2.6-2.3,5.7-2.3,6.9,0,1.8-.8,2.5-3.5,3.3-1.9.5-4.9,2.1-6.6,3.5s-3.5,2.6-4,2.6c-1.5,0-6.9-2.9-11.6-6.3-3.5-2.5-4.8-2.8-7.7-2.3-3.9.7-4.7,2.3-1.8,3.3.9.4,3.5,2.2,5.7,4,2.2,1.9,4.9,3.6,6,3.9,1.9.5,2,1.1,1.5,8.8-.3,4.8-1.1,9-1.9,9.9-1.2,1.5-1.5,1.5-3.3-.8-2.1-2.8-4.5-3.2-7.2-1.2-1.9,1.4-2.1,3.4-.9,9.7.7,3.5,1.3,4.5,2.8,4.5s2.3-1,3-3.3c1.2-4,2.1-4.1,2.9-.1,1.2,6.3.6,9.4-2.6,13.9-3,4.1-3.4,5.4-4.4,16-1.3,14.2-3.9,20.4-11.3,27.7-6.5,6.5-17.3,12.2-24.3,13l-5.3.5,4.5-2.9c5.2-3.5,9.6-7.6,16.4-15.6,6.9-8.2,5.2-9-2.4-1.1-3.6,3.7-7.8,7.7-9.5,8.9-5,3.9-13.8,5.8-26.7,5.9-10.3.1-14.1.7-12.7,2,.2.2,3.7.9,7.7,1.4,4.7.7,8.9,2,11.9,3.8l4.6,2.7-2.9,1.5c-1.6.8-4.1,2.5-5.5,3.9l-2.6,2.4-1.2-2.9c-1.2-2.8-4.7-5.2-7.6-5.2-4.7,0-9.5,5.1-9.5,10.2q-.1,2.2-2.6-.6c-2.1-2.3-2.8-2.6-3.5-1.5-1,1.7-.2,4.7,1.8,7.1,2.4,2.7,8.8,4.3,15.9,3.9,1.2-.1,5-2.6,8.5-5.7,6.9-6.2,10.1-7.9,17.2-8.9,5.6-.9,5.7-.4,2.2,6.6-3.3,6.4-9.5,12.4-14.8,14.3l-4.2,1.4h3.7c2.1.2,6.3-.8,9.4-1.9,6-2.3,12.7-8.2,20.8-18.3l4-4.9.9,2.6c1.6,4.8-.7,9.8-7,15.1-10.4,8.8-15.4,11.5-23.8,13.3-6.6,1.3-9.1,1.4-16.4.4-18.9-2.7-27.5-10.4-28.8-25.9-1-11.8,2.8-18.2,10.8-18.2s6-1.8,2.8-4.1c-5.5-4.1-5.9-4.8-5.9-9.8s-1.4-7.3-3.3-3.4c-2.2,4.3-2.9,8.7-1.8,11.5.8,2.2.6,3-1.5,4.9-4.4,4.1-6.4,9.8-6.4,18.2s-.1,7.7-2.3,7.7-4.6,1.2-7.5,2.6c-4.6,2.3-5.5,3.3-8.4,9.2-3.3,7.1-4.8,15.5-2.9,16.6.7.5,1.1-.1,1.1-1.4s1.4-5.4,2.5-6.8c.1-.2,1.6,1.1,3.3,2.8s4,3,6.4,3c4.6,0,11.6-2.5,15.2-5.3l2.9-2.4,3.8,2.1c2.2,1.2,3.9,2.4,3.9,2.8s-1.5,2.4-3.2,4.4c-3,3.4-15.5,10.4-18.6,10.4s-1.1.4-.8.9c1.6,2.5,18.1-4.2,25.2-10.3,3.7-3.2,4.4-3.4,7.8-2.6,2.1.4,4,1,4.2,1.3.7.7-10.7,8.2-18.3,12.1-10.3,5.1-21.3,8.6-27.3,8.6s-5,.4-4.8,1.2c1.4,4.1,17.4,3.3,32.3-1.7,1.2-.4,0,1.2-2.8,3.8-14.3,13.6-25.9,18.9-36.5,16.8-4.1-.8-6.4-1.9-8.3-4-2.9-3.2-4.4-9.4-3.4-14,.6-2.7.9-2.9,4.1-2.4,4.1.7,4.3-.3.9-5.3-1.4-2-2.9-5.2-3.4-7-1.1-4,.1-13.8,2.4-20.3,1.4-4.2,7.8-13.6,13-19.5,2.4-2.6,2.7-2.7,4.4-1.2,2,1.8,8.1,3.3,8.1,1.9s-1.4-2.2-3-3.8c-4.4-4.2-8.1-11.2-8.7-16.6-.7-6,1.8-11.5,8.6-19.3,2.9-3.2,6.7-8.8,8.5-12.5,3.8-7.3,5.9-9.6,13.3-14.4,2.8-1.8,7.4-6,10.2-9.4,2.8-3.5,6.5-7,8.2-7.9,1.7-.8,2.8-1.1,2.5-.5-.4.6-.9,2-1.1,3-.3,1.6.4,1.4,4.2-1.5,6.1-4.7,11-7.1,18-8.9,17.5-4.6,28.7,2.4,32.4,20.2.7,3.4,1.6,6,2.1,5.7,1.4-.9.9-12.9-.7-17.5-3.3-9.2-11.2-15.6-20.7-16.8l-5.2-.6,8.9-5.2c9.6-5.6,14.4-6.6,18.1-3.8,1.5,1.1,1.6,1.4.4,1.5-.9,0-2.1-.5-2.8-1.2s-1.5-.9-2.3-.1c-1.6,1.6-.2,5.1,2.7,7,5,3.3,14.6-2.4,12.9-7.6-1.6-5.2-10.6-8.2-18.2-6.2-4.6,1.2-16.4,8.8-20.4,13-2.3,2.5-8.9,5.8-8.9,4.5s7.7-10.4,9.5-10.8c1.2-.3,5.3-2.4,9.1-4.6,4.3-2.5,9.8-4.6,14.6-5.7,4.3-1,7.8-2.1,7.8-2.5,0-2.6-17.2-1.3-23.3,1.9-1.6.8-3.1,1.2-3.3,1-1.1-1.1,7.6-6.9,14.6-9.8,12.9-5.4,15.2-6.9,25-16.4,11.8-11.4,13.4-12.5,18.7-12.5s5,.6,8.3,3.6c3.4,3.1,4.3,3.4,5.5,2.4,1.1-.9,1.4-2.2,1-4.1-.6-2.5-.4-2.8,2.7-3.2,1.8-.2,3.5-.4,3.8-.5s3,1.8,6,4.1ZM565.3,298.1c2.6,1,8.6,4.4,13.4,7.4s9.1,5.5,9.6,5.5,2.3.6,4,1.4c1.8.8,5.3,1.6,7.9,1.9,3.8.4,5.9,1.4,11,5.5,8.7,6.9,14.8,13.6,18.7,20.7,4,7.1,7.3,10.9,12.1,13.7,9.6,5.8,13.8,12.5,17.5,28.3,3.2,13.4,3.1,15.2-.2,8.5-3.8-7.7-10.8-14.5-16.3-16-4.3-1.2-14.9-.9-23,.5-3.4.7-3.6.5-5.3-3.4-3.2-7.1-6.7-7.4-12.1-1.1-5.8,6.9-5.6,17.2.4,32.3,1.6,4.1,4.2,12,5.6,17.4,2.6,9.6,2.6,10.1,1.4,21.5-.7,6.4-1,12.5-.8,13.6.9,3.2-1,11-3.3,14.3-2.1,3-1.3,3.7,2.2,1.9,4.2-2.3,6.1-10.3,7.4-32,.6-8.9.4-11.7-1.4-18.9-1.2-4.6-1.9-8.6-1.6-8.9.3-.4,3.8-.8,7.7-1l7-.4-1.7,2.6c-5,7.6,4.9,22.1,16,23.3,3.9.5,4.7.2,7.5-2.5,3.4-3.4,3.7-5.6,1.4-9.2-1.5-2.4-1.4-2.3.9.2,1.4,1.5,2.7,3.3,3,4,.2.7.8.9,1.3.5,1.3-1.3-5.6-13.5-10.3-18.3-5.9-5.9-11.8-7.7-23.8-7.2-5.1.1-9.2.1-9-.1s3-1,6.2-1.7c7.7-1.8,15.9-1.8,21.6.2,5.3,1.8,13.4,8.6,17.6,14.8,3.4,4.9,6.6,15.6,6.5,21.1-.1,2.2-.2,7.6-.3,12l-.2,8-2-2.8c-2.1-2.8-4.3-3.5-5.4-1.7-.3.5,1.2,4.7,3.4,9.2,5.7,11.6,7.2,18.3,7.2,31.3s-1.6,21.9-5.7,35.7c-3.8,13.2-11.2,32-13.4,34.3-1.1,1.2-2,2.7-2,3.3,0,2.2-14.4,15.8-19.1,18-8.9,4.3-16.3,2.2-28.4-7.7-14.5-12-21.6-14.8-35-13.8-9.2.7-16,2.6-35.3,10.1-16.8,6.6-24.8,8.3-42.2,9.1-17.5.7-24.6,2.3-38.8,8.6-18.1,8-21.8,9.1-30.8,9.3-7.1.1-8.7-.2-13.9-2.9-4.6-2.3-6.4-4-8.2-7.4-2.1-4-2.3-5.7-2.3-17.6s-2-28.5-6.1-40.1c-2.7-7.6-2.8-8.8-2.6-23.5.2-15.1.1-15.6-3.1-24.4-3.9-11-4-14.3-.3-23.7,1.6-4,3.2-9.7,3.5-12.7.8-6.3,1.9-8.6,9.2-19.5,6.8-10.1,9.4-18.1,9.4-29.1s.7-10.5,2.9-17.6c1.6-5.2,3.2-11,3.5-12.9.4-1.9,1.6-6.2,2.6-9.5s2.1-8.2,2.5-10.9c.7-5.4,4-9.6,7.6-9.6s5.6,1.6,9.9,3.5c9,4.1,10.8,4.2,14.4,1.4,2.3-1.8,2.6-2.7,2.6-8.7v-6.7l6.4-5.7c6.5-5.8,9.5-10.7,10.5-16.8.6-3.3.9-3.5,5.6-4.2,4.5-.6,43.1-3,67-4.1,5-.3,10.6-1.1,12.5-1.9,4-1.7,8.3-1.3,15.3,1.3ZM730.4,322c30,41.5,48.5,88.8,55.2,141.5,2,15.6,2.2,50.2.5,65.5-3.7,32.6-11.4,61.7-23.8,90-39.4,89.5-119.3,154.3-214.9,174.3-21.7,4.6-36.1,6-60.9,6-47.4,0-87.5-8.9-129.5-28.9-91-43.4-154.3-129.1-169-228.9-4.2-28.3-3.8-64.9,1.1-93.5,2.5-14.5,8.8-39.9,10.4-41.8.2-.2,1.7.4,3.3,1.2l3.1,1.6-2,6.7c-14.5,49.6-15.6,102.9-3.3,152.8,8.2,33.4,22,64.5,41.5,93.5,22.4,33.4,54.3,64.4,87.9,85.5,61.6,38.6,135.3,52.9,207.6,40.4,119.4-20.6,215.6-116,237.9-235.9,6.3-33.8,6.1-76.2-.6-110-7-35.7-20.1-68.7-39.6-99.7-3.5-5.7-7.1-12.6-7.9-15.5-.9-2.8-2.7-7.6-4-10.6-4-9-3.3-8.5,7,5.8ZM718,337.1c1.1,6.2,1.8,11.4,1.6,11.6-1.1,1.2-5.6-10.6-5.6-14.6s.9-9.5,1.7-8.8c.2.3,1.2,5.5,2.3,11.8ZM256.4,343.6c.9.3,1.6,1.7,1.6,2.9s1.2,3.3,3.1,4.8l3.1,2.4-4.9,3.1c-10.5,6.7-45.6,21.2-60,24.7-9.5,2.3-23.1,1.8-28.7-1.2-4.5-2.3-4.1-2.6,4.9-3.8,21.6-2.8,54.2-15.7,70.5-27.9,7.9-5.9,8-5.9,10.4-5ZM711.3,349.2c1.9,3,1.3,3.5-1.6,1.4-1-.8-1.5-2-1.1-3,.4-.9.7-1.6.8-1.4s1,1.5,1.9,3ZM271.4,356.5c1.8,1.4,4,2.5,4.9,2.5,2.1,0,2.1.6-.1,4.8-4.4,8.2-28.1,21.8-46.7,26.8-11.9,3.2-27.7,3.8-33.4,1.3l-3.5-1.5,8.7-2.1c20.2-5,48.5-18.8,59.5-29,3.1-2.8,6.1-5.2,6.5-5.3.5,0,2.3,1.1,4.1,2.5ZM740.4,381.7c.6,1.9.3,2.3-1.2,2.3-2.2,0-3.2-2.6-3.1-8v-3.5l1.8,3.5c1,1.9,2.2,4.5,2.5,5.7ZM267.9,383.3c-3.4,8.3-7.7,12.4-18.5,17.4-5.3,2.5-6.9,2.8-16.9,2.8-6.8-.1-12.2-.6-14-1.4-2.9-1.2-2.7-1.3,8.5-4.2,13.3-3.3,28.6-10.5,37-17.3,3-2.5,5.8-4.5,6.2-4.5.4-.1-.7,3.2-2.3,7.2ZM745.3,392.5c.9,2,1.7,3.8,1.7,4,0,.3-2.2.5-5,.5q-5,0-5-3.3c0-4.1.5-4.7,4-4.7s3,.8,4.3,3.5ZM750,404.6c1.9,4.8,1.4,5.2-5.5,5.6l-6.5.3v-3.7c0-4.1.7-4.6,6.8-4.7,3.7-.1,4.4.2,5.2,2.5ZM235.8,415.8c-5,1.5-16,1.2-16.5-.4-.3-.8,2.9-1.1,10.2-1,10.3.1,10.5.1,6.3,1.4ZM754.4,418.2c.3,1.7.3,3.5-.1,3.9-.5.4-4.3.9-8.5,1.1l-7.8.5v-3.8c0-4.3.6-4.5,10.1-4.8,5.6-.1,5.7-.1,6.3,3.1ZM252.7,417.9c1.3,2.1.6,6.1-1.1,6.1s-8.5.7-17.6,1.5-16.9,1.5-17.3,1.5c-1,0,.1-6.1,1.3-7.3.6-.7,19.7-2.8,31.5-3.6,1.1,0,2.5.7,3.2,1.8ZM725,438.9c-.6,9.1-1.4,18.2-1.8,20.1l-.8,3.5-4.3-7.8c-4.2-7.7-4.3-7.9-3.1-12.5,1.7-6.9,10.2-24.1,10.7-21.8.3,1,0,9.3-.7,18.5ZM758,431.4l.8,3.5-4.2.5c-2.2.3-7.1.8-10.8,1.1l-6.8.7v-8l7.8-.7c4.2-.3,8.6-.7,9.7-.8,2.6-.4,2.5-.4,3.5,3.7ZM253.5,432.6c.3,2,.4,3.8.2,4.1-.8.7-39.7,3.6-40.3,3-.4-.3-.3-2.2,0-4.2.6-3.2,1-3.5,4.4-3.6,2,0,10-.6,17.7-1.3s14.7-1.4,15.6-1.5c1.2-.1,1.9,1,2.4,3.5ZM760.4,442.2c1.6,6.1,1.3,6.3-14.6,7.4l-9.8.6v-3.6c0-2,.6-3.9,1.3-4.1.6-.2,5.7-.8,11.2-1.3s10.3-1,10.6-1.1c.4,0,.9.9,1.3,2.1ZM255.2,446l.3,3.9-5,.5c-2.7.3-11.1,1-18.5,1.6s-15.5,1.3-17.9,1.6l-4.4.6.8-3.9c.4-2.1.9-4,1.1-4.2.3-.4,17.1-1.9,41.5-4,1.3-.1,1.8.9,2.1,3.9ZM763.1,457.3c.3,2,.3,3.7,0,3.8-4.7.6-28.3,2.4-28.5,2.2s0-2,.3-4.1l.6-3.7,12.5-1.1c6.9-.6,12.9-1,13.5-.9.5.1,1.3,1.8,1.6,3.8ZM707,459.8c.6,2.4,2.7,6.1,4.7,8.3,3.5,3.8,3.6,4.1,2.4,7.8-1.5,5.1-1.4,9.6.4,15.6,1.6,5.1,1.3,9-1,13.5-1.1,2.1-1.1,3,.1,5,2.3,4.3,1.7,8.6-1.7,12.5l-3.2,3.6,2.2,3c3.1,4.1,2.5,7.2-1.6,8-5.6,1.1-8.5,4.8-9.8,12.6s-2.1,6.1-4.1,8.7c-1.9,2.5-3.4,4.9-3.4,5.3,0,2.3-16.3,14.7-23.1,17.6-4.1,1.9-2.2,2.1,5.7.6,3.2-.6,8.3-2.4,11.3-4.1l5.4-3-.8,3.9c-1,5.6-5.3,12.9-11.4,19.5-4.2,4.6-7.5,6.9-15.7,10.9-7.4,3.6-11.2,4.9-13.6,4.7-3-.3-3.3-.6-3.3-3.7s.9-4.3,12.5-9.8c1.4-.6,4.7-2.1,7.3-3.3,3.2-1.6,4.7-2.8,4.5-3.9-.2-.9-1.2-1.5-2.3-1.4-2.9.2-12.6-4.7-15.7-7.9l-2.6-2.8,2.3-5.7c1.2-3.1,3.1-6,4.1-6.4,1.1-.4,4.6-.8,7.9-.8,7.8-.1,12.7-1.5,16.6-4.8,3-2.6,3.1-2.9,2.5-8-.3-3-.7-5.9-.9-6.6-.1-.6,2.1-1.8,4.8-2.7,6.4-2.1,8.7-5.8,6.2-10.1-1.3-2.4-1.3-3-.2-3.9.9-.8,1.3-2.9,1.2-6.2-.2-4.9-.1-5.1,5.2-9.8,5-4.4,5.3-5,4.7-8.1-1.1-5.8-5.8-9.9-11.3-9.9s-5,1.1-9.6,7.6c-2,2.8-5.3,6.4-7.3,7.9l-3.6,2.7.7-6.8c.6-5.7,1.3-7.5,3.9-10.5,4.1-4.8,8.6-7.8,13.6-9.3,5.4-1.6,5.2-3-.5-3.4-3.2-.2-6.2.4-10,2.2-2.9,1.3-5.6,2.2-5.9,1.8-.3-.3-.6-2-.6-3.8,0-2.6.6-3.6,3.6-5.3,1.9-1.2,4.3-2.1,5.2-2.1s3.5-.7,5.7-1.5c4.9-1.7,15.7-1.9,17.3-.3s2.7.2,1.2-1.7c-.8-.9-2.6-2.3-4.1-3.1-2.4-1.2-2.8-1.9-2.3-4.3.7-3.5-1-7.1-3.4-7.1s-2.7-.7-3.8-1.5c-1.8-1.3-1.7-1.4,1.6-1.5,1.9,0,5.1-.8,7-1.9,1.9-1,3.6-1.6,3.7-1.2.1.3.7,2.5,1.3,4.9ZM254.4,457.2c-2.1,6.9-.2,6.3-23.9,8.2-12,.9-21.9,1.5-22.1,1.3s-.1-2,.3-4c.4-2.9,1-3.7,2.7-3.8,2.2-.1,41.4-3.5,42.9-3.8.5,0,.5.9.1,2.1ZM764.4,467.6c.3.9.6,2.6.6,3.9,0,2.7-1.1,3-14.5,4-4.4.3-10.3.8-13.2,1.1l-5.2.6.6-3.8c.3-2.2.7-4,.8-4.2.2-.2,6.8-.9,14.7-1.6,7.8-.8,14.6-1.4,14.9-1.5.4,0,1,.6,1.3,1.5ZM248.5,472.7c-.9,2-1.7,3.9-2,4.1-.4.4-31.3,3.1-36.3,3.2-3.2,0-3.3-.1-3-3.8l.3-3.7,18-1.6c9.9-.9,19.5-1.7,21.3-1.8h3.2c0-.1-1.5,3.6-1.5,3.6ZM368.5,478.7c5.6,11.6,6.7,18.4,4.9,30.2-3.1,21.2-10,34.6-20.9,40.4-6.2,3.3-18,3-26-.6-12.8-6-21.2-14.6-23.9-24.9l-1.5-5.3,3.2-2.9c3.5-3.3,2.9-3.9,6.7,6.5,2.3,6.2,8.6,14.1,13.1,16.5,1.6.8,2.9,1.2,2.9.9s-1.7-2.9-3.9-5.8c-5.1-6.8-7.6-12-9-18.5-.6-2.9-1.1-5.7-1.1-6.1s3.4-3.6,7.5-7,7.5-5.8,7.5-5.3-1.2,2.5-2.7,4.7c-2.5,3.6-2.8,4.8-2.8,12.7s.2,8.9,3,12.9c4.6,6.4,7.8,8.4,13.5,8.3,5.3-.2,13.9-3.7,19.4-7.9,3.7-2.8,9.2-10.2,8.3-11.1-.3-.4-2.5.9-4.9,2.9-4.3,3.4-8,5.7-9.4,5.7s1.1-1.3,3.4-2.9c5.8-4.3,10.5-14.2,11-23.3.4-6.6-2-17.6-4.9-23.1-.8-1.4-.6-2.2.8-3.3,1-.7,1.9-1.4,1.9-1.4.1,0,1.9,3.5,3.9,7.7ZM765.8,484.1l-.3,3.4-14,1.2c-7.7.6-15.9,1.2-18.1,1.2h-4.2c0,.1,1-3.9,1-3.9.9-3.6,1.4-4,4.2-4.1,1.7,0,9.2-.6,16.6-1.3s13.9-.9,14.3-.5c.5.3.7,2.2.5,4ZM245,484.7c-.1,6,.3,5.8-19.7,7.4-20.2,1.5-20.3,1.5-18.6-3.8q1-2.8,13.9-3.9c20.8-1.8,24.4-1.7,24.4.3ZM766,496.8v3.8l-19.7,1.6c-10.9.9-19.9,1.5-20.1,1.3s.3-2,1-4.1l1.3-3.9,13-1.1c7.2-.6,15.6-1.2,18.8-1.2l5.7-.2v3.8ZM243,499.6c-.5,1.9-1,3.7-1.2,3.9-.6.7-34.2,3.3-35,2.8-1.3-.7-.9-7.3.5-7.4.6,0,7.3-.6,14.7-1.3,7.4-.8,15.4-1.4,17.6-1.5h4.2c0-.1-.8,3.5-.8,3.5ZM766,509.5c0,2-.6,3.8-1.2,4-.7.2-7.4.9-14.8,1.5s-15.6,1.3-18.2,1.6l-4.7.6.6-3.9c.3-2.1.7-4,.9-4.2.4-.4,26.1-2.8,32.7-3h4.7c0-.1,0,3.4,0,3.4ZM238.6,510.6c-.3.9-1.6,2.8-2.9,4.4-2,2.5-3,2.8-10.7,3.4-4.7.4-10.6.9-13.2,1.2l-4.8.6v-4.1c0-3.2.4-4.1,1.8-4.2.9,0,7.6-.6,14.7-1.4,7.2-.7,13.6-1.3,14.4-1.4s1.1.5.7,1.5ZM250.4,518.4c.3,1.4,1.9,3.8,3.6,5.4,3,3,3,3.1,1.2,6.1-2.2,4-4.7,4-6.1,0-.9-2.7-1.3-3-2.6-1.9-3.5,2.9-.8,9.8,5.5,14.5,9.5,7,22.9,2.6,32.4-10.8,2.5-3.5,5.7-6.9,7.2-7.6,1.5-.6,2.7-1,2.8-.9.2.2.8,2.2,1.5,4.6,1.2,4.3,1.2,4.4-2.8,9.6-4.2,5.7-11.5,11.1-16.2,12.1-4,.9-3.7,2.5.6,2.5,6.1,0,14.2-3.8,19.5-9.1s7.4-4.7,3.3,3.7c-5.1,10.6-17.3,20.8-29.5,24.8-1,.3-1.8,1.3-1.8,2.2,0,2.6,7,1.2,15.7-3.1,7.1-3.5,7.5-3.6,8.8-1.8,3.4,4.4,3,12.1-.7,16.8-2.6,3.4-9.1,6.4-13.7,6.5-7,0-11.3-2.2-19.7-10.3-9.1-8.6-11.2-12.3-9.4-15.7,1-1.8,1.6-2,4.3-1.3,5.3,1.3,12,.9,16.5-1.1,2.3-1,3.9-2.3,3.6-2.7-.3-.5-2.9-.9-5.8-.9-7.9,0-14.4-2.4-21.3-8-7.7-6.1-10.7-11.5-9.6-16.8.4-2,.6-4.1.5-4.5s.3-1.8.9-3c1.4-2.6,9.1-11.6,10-11.7.4,0,1,1.1,1.3,2.4ZM765,522.9v3.8l-5.7.6c-3.2.4-12.3,1.2-20.2,1.8l-14.4,1.2-1.8-2.4c-1.7-2.3-1.7-2.5-.1-4.1,1.3-1.2,5.7-2,18.7-3.1,25.7-2.2,23.5-2.4,23.5,2.2ZM229,523.9c0,.5-.7,2.4-1.4,4.3l-1.5,3.5-8.2.6c-4.5.4-8.6.4-9,.1-.5-.3-.9-2-.9-3.9v-3.3l6.3-.6c5.4-.5,8.2-.8,13.5-1.5.6,0,1.2.3,1.2.8ZM763.5,535.7c-.4,2.1-.9,4-1.1,4.2-.6.6-39.4,3.8-39.4,3.2s.5-2,1.1-4.1l1.1-3.7,17.7-1.5c9.7-.8,18.4-1.6,19.5-1.7,1.6-.1,1.7.4,1.1,3.6ZM226.9,540.7c.6,2,.9,3.8.8,3.9s-4.1.4-8.9.8l-8.8.7v-2.5c0-1.3-.3-3.1-.6-4-.6-1.6,1.9-2.1,11.8-2.4,4.6-.2,4.7-.1,5.7,3.5ZM761.5,549.2c-.4,1.8-1,3.6-1.4,3.9-.6.7-36.6,3.9-42.9,3.9s-3.9-.6-.4-4.7l2.7-3.3,15.5-1.4c8.5-.7,18.1-1.4,21.3-1.5h5.9c0-.1-.7,3.1-.7,3.1ZM233.2,553.4l2.8,3.5-5.3.5c-2.8.3-7.8.8-11.1,1.2-6.5.6-7.6,0-7.6-4.8s1.2-3.3,13-3.6c5.2-.2,5.7,0,8.2,3.2ZM318.9,563.2c2.2,2.7,5.1,9.9,5.1,12.4s-1.6.3-4.8-1.6c-5.6-3.5-12.4-4.5-13-1.8-.2,1.1.9,2.3,3.5,3.7,5.2,2.6,10.6,8.5,14,15.1,2.5,5,2.8,6.5,2.8,16s-.2,10.9-2.7,15.2c-3.4,5.7-9.5,11.1-16.8,14.8-7.9,4-13.2,4.5-20.5,2.2-5.8-1.9-5.9-2-2.3-2.1,13.4-.4,26.4-6.7,35.1-17,4.8-5.8,3.1-6.3-4.4-1.1-3.8,2.6-10,6.1-13.7,7.6-5.8,2.5-8,2.9-16.7,2.9s-15.5-1.6-19.9-6.4-2.5-2.1-3.3-2.1c-3.4,0-8.9-17.9-7.7-24.9q1-6.2,6.9-2.6c5.9,3.5,12.9,5.5,19.4,5.5s4.1.5,4.5,1.6c.8,2,.8,7.8,0,9.8s-6.9,3.1-12,1.1c-2.5-.9-4.7-1.6-4.9-1.4s1.1,2.1,2.9,4.3c2.7,3.2,4.1,3.9,7.9,4.3,8.9,1,20.2-5.8,24.9-15.1,2.5-5,3.4-13.9,1.9-19.1-.7-2.2-1.9-6.9-2.6-10.4-.8-3.6-2.4-7.4-3.6-8.7l-2.2-2.3,4.7-5.2c2.5-2.8,4.6-5.6,4.6-6.1,0-1.2,10,7.6,12.9,11.4ZM758.5,562.7c-.4,2.1-.8,3.9-.9,4-.4.4-46.3,4.3-50.3,4.3h-3.4l2.2-4c1.5-2.6,3-4,4.3-4.1,1.2,0,11.3-.8,22.6-1.8,29.1-2.6,26.4-2.8,25.5,1.6ZM240,565.9v3.9l-7.2.6c-4,.4-9.4.9-11.9,1.2l-4.6.5-1-4-1-4,7.6-.6c4.2-.3,8.5-.7,9.6-.9s3.5-.4,5.3-.5c3.1-.1,3.2,0,3.2,3.8ZM354.7,573.2c-5,19.7-3.1,41.1,6.6,74.3,1.9,6.6,5.4,21.9,7.7,34s4.6,22.9,5.1,24c.6,1.2.8-5.4.4-17.3-.5-19.8.4-28.3,4-39.3,2.1-6.1,12.4-16.3,18.1-17.7,10.2-2.6,15.7-2.4,25.2.8,18.4,6.2,33.7,6,50.5-.6,4.8-1.9,12.7-5,17.6-6.9,15.6-6.1,26.2-6.6,35.9-1.6,3.7,1.9,12.5,10.6,17.4,17.1,2.6,3.6,7.6,21.3,9.8,35.2,1.3,8.3,1.5,43.5.2,46.8-1.6,4.2-2.4,13.7-1.7,19.5.6,4.7,1.1,5.6,3.1,6.1,3.2.8,9.8-4.7,11.4-9.6.7-1.9,3.5-9.3,6.2-16.4,4.5-11.7,9.6-30,13.4-47.9.8-3.8,1.9-7.7,2.5-8.8,1-2,1.1-2,3.1-.2,3.3,3,9.8,13,13.5,20.9,1.8,4.1,4.9,13.5,6.9,21.1,3.4,13.2,6.9,36.8,5.7,38.6-.8,1.3-17.8,9.1-30.9,14.2-34.5,13.4-68.1,19.1-106.9,18.2-30-.7-52.1-4.4-78.4-12.9-10.8-3.5-29.1-10.6-29.1-11.2s-.7-7.4-1.5-16.2c-2.6-27.4-4.9-39.6-18.8-103.4-2.9-13.5-3.1-15.9-3.2-34,0-18,.2-19.9,2.2-24.3,2.3-4.8,5-6.6,4-2.5ZM756,573c0,.6-.6,2.5-1.4,4.3l-1.3,3.3-21.9,1.7c-12.1,1-23.8,2-26.1,2.3l-4.3.6.6-3.3c.4-1.9,1-3.8,1.5-4.3s12.2-1.9,26.1-3.1c13.9-1.3,25.6-2.3,26.1-2.4.4,0,.7.4.7.9ZM242,575.9c0,.5.3,2.2.6,3.9l.6,3-8.8.7c-4.9.3-10.1.8-11.6,1.1-2.3.5-2.8.1-3.8-3.1-.7-2-1-3.9-.7-4.1.5-.5,14.1-2,20.5-2.3,1.7,0,3.2.3,3.2.8ZM752,586.4c0,.2-.7,2-1.5,3.9-1.4,3.3-1.9,3.6-6.7,4.1-9.3,1.1-40.8,3.6-44.4,3.6h-3.4l2-4c1.6-3.1,2.6-4,4.8-4.1,1.5,0,11.5-.9,22.2-1.8,20.6-1.9,27-2.3,27-1.7ZM244,592c0,3.5-.3,4-2.2,4.1-1.3,0-5.6.4-9.7.8l-7.4.7-1.4-3.4c-.8-1.9-1.2-3.7-.8-4,.5-.5,11.1-1.7,18.3-2.1,3.1-.1,3.2,0,3.2,3.9ZM745.5,603.7c-.9,2-1.7,3.8-1.8,3.9s-9.4.9-20.7,1.8-23.2,1.9-26.4,2.3l-5.9.6.7-3.4c.3-1.8,1-3.7,1.5-4.2.9-.9,37.2-4.4,47.9-4.6h6.2c0-.1-1.5,3.6-1.5,3.6ZM244.5,604.6c.3,2,.5,3.8.2,4-.2.2-3.7.7-7.8,1l-7.4.7-1.3-3.5c-.6-1.9-1.2-3.7-1.2-4.1s3-.8,6.8-1c3.7-.2,7.4-.4,8.3-.5,1.2-.1,1.9.9,2.4,3.4ZM683,623.9c1.6,11.4-.9,20.7-7.7,28.1-5.5,6.2-10.8,8.2-22.2,8.6-6.5.2-9.8.7-10.8,1.7-.8.7-2.2,4.5-3.2,8.3s-3,9.4-4.6,12.4c-2.8,5.6-8.3,13-9.6,13-2.9,0-.6-15.8,4.1-27.3,1.7-4.4,3.4-10.7,3.7-14.3l.6-6.4,3.2,3.8q3.3,3.7,5.4,1.8c1.2-1.1,1.9-2.6,1.7-3.5-.3-.9-.8-2.8-1.1-4.3l-.7-2.7,3.8,2c2.1,1,5.4,1.9,7.3,1.9,7.1,0,22.1-10,22.1-14.8s-.9-2.8-5,.3c-3.4,2.5-8.4,3.3-9.4,1.6-.3-.5.5-1.2,1.9-1.5,3.1-.8,10.5-7.3,10.5-9.2s-2.6-1.9-3.5-.4c-1.2,1.9-8.4,5-11.8,5s-9.7-3.5-10.5-5.9c-.4-1.1.2-1.3,2.6-.8,7.2,1.5,22.8-3.1,27.3-8l2.4-2.5,1.3,3.1c.6,1.7,1.7,6.2,2.2,10ZM741,613.5c0,.3-.9,2.3-1.9,4.3l-1.9,3.7-22.2,1.8c-12.1,1-22.5,1.5-23.1,1.2-.5-.4-.9-2.2-.9-4.1,0-3.2.2-3.4,3.3-3.5,1.7,0,12-.9,22.7-1.8,23.5-2.2,24-2.2,24-1.6ZM247.9,617.9l2,3.8-6.6.7c-7.2.7-8,.4-10.1-4.6l-1.1-2.7,5.2-.4c2.9-.2,6-.4,6.9-.5,1.1-.1,2.5,1.2,3.7,3.7ZM255.4,630.2c3.1,4,2.4,4.5-6.4,4.9-6.2.3-6.5.1-8.2-2.7-2.4-3.8-2.3-4.2,1-4.7,8.4-1.3,11-.8,13.6,2.5ZM734,627.5c0,.6-2.9,6.6-3.5,7.3-.3.3-31.9,3.2-35.7,3.2s-2.8-.3-2.8-3.9v-3.8l16.3-1.2c8.9-.7,16.7-1.4,17.2-1.6,1.7-.6,8.5-.5,8.5,0ZM332.8,637.3c4.6,3.5,5.7,3.9,9.1,3.3l3.8-.6,1.7,7.7c1.1,5,1.3,8,.7,8.6s-4.3,1.2-8.4,1.5c-10.9.7-20.9-2.7-30.2-10.2l-2.9-2.4,5.1-2.5c4.2-2.2,5.3-2.4,6.2-1.3,2,2.3,14.9,7.8,17.8,7.4,3.7-.4,3.6-2.8-.2-4.7-1.6-.9-5.4-3-8.3-4.9-5.2-3.2-5.3-3.4-3.7-5.2,2-2.2,1.9-2.2,9.3,3.3ZM265.8,642.9l3.1,3.8-9.2.7-9.2.7-2.2-2.8c-3.6-4.4-3-5.2,4-5.6,3.4-.2,7.1-.4,8.3-.5,1.3-.1,3.2,1.2,5.2,3.7ZM724.8,644.6c-1.2,2-2.6,3.8-3.3,4-1.2.5-31.8,3.3-32.2,3-.1-.1.4-2,1.1-4.1l1.4-4,12.4-1.1c6.7-.6,14.6-1.2,17.5-1.3h5.2c0-.1-2.1,3.5-2.1,3.5ZM309.3,657.9c2.2,1.2,2.4,1.7,1.6,3.8-.5,1.3-.9,3.5-.9,4.8,0,1.9-.5,2.3-2.6,2.2-4.4-.3-5.1,2.2-2.5,9.2,2.6,6.8,6,11.1,9,11.1s8-4.8,10.1-11.7c1.1-3.6,2-7.8,2-9.4s.5-2.9,1.9-2.9c2.3,0,3.1,2.6,3.1,10.3s-5.4,17.2-14,19.8c-3.7,1.1-4.2,1-8-1.6-5.4-3.7-8.6-9.5-9.9-17.4-.7-4.3-1.8-7.3-3.4-9-4.4-5-5-6.2-5.6-12.6l-.7-6.4,4.6-.3c4.2-.3,4.8,0,8.6,4.2,2.3,2.5,5.3,5.2,6.7,5.9ZM275.4,651.6c1,.4,1.6,1.8,1.6,3.9,0,3.3,0,3.4-5.7,4-3.2.3-7.4.8-9.3,1-3.1.4-3.8,0-5.9-3.1-1.3-1.9-2.2-3.7-1.9-3.9.3-.3,4.5-.9,9.4-1.4,4.9-.4,9.2-.9,9.6-1,.3,0,1.3.2,2.2.5ZM715.3,659c-1.5,2.2-3.5,4-4.3,4-.8.1-8.2.7-16.5,1.4-8.2.8-15.1,1.3-15.2,1.2,0,0,1.6-2,3.6-4.3l3.8-4.2,9.9-.9c5.4-.5,12.5-1,15.7-1.1h5.8c0-.1-2.8,3.9-2.8,3.9ZM280.1,667.9l2.7,3.8-7.4.7c-7.2.7-7.5.6-9.9-2.1-3.7-4.3-3.2-5.2,3.3-5.6,3.1-.2,6.4-.4,7.2-.5s2.7,1.6,4.1,3.7ZM705.4,672.2c-1.6,1.8-3.1,3.6-3.4,4.1-.6.7-44.6,4.7-51.8,4.7h-3.3l1.7-2.9c1-1.6,2.7-3.5,3.9-4.1,2-1.1,38-4.6,49.9-4.9h6c0-.1-3,3.1-3,3.1ZM289.7,678.2c.6.7,1.2,2.3,1.5,3.5.7,2.5-1.2,3.3-8.5,3.3s-5.1-.4-7.6-3.3l-3-3.2,2.7-.6c4.9-1.2,13.9-1,14.9.3ZM692.9,686.7c-1.8,2.1-3.5,3.9-3.6,4.1-.2.4-42.3,4.1-46.5,4.2-1.6,0-1.5-.4.4-3.8,1.2-2,2.3-3.9,2.5-4.1.3-.4,38.6-3.8,45.7-4h5c0-.1-3.5,3.6-3.5,3.6ZM293.4,694.1c1,4.5-2.5,4.4-7-.2l-3.7-3.8,4.4-.3c4.6-.3,5.3.1,6.3,4.3ZM329.3,700.7c-.5,5.3,2.4,15.1,5.4,18.6,1,1.1,5.2,3.5,9.3,5.4,4.1,1.8,9.8,5.2,12.7,7.4,2.8,2.3,5.6,3.8,6.2,3.5,1.4-.9,1.8.2,2.6,7.9l.7,7-4-4.1c-4.9-5.1-9.5-8.3-24.5-16.9-13.3-7.6-14.7-9.3-14.7-18s-.4-6.4-1-7.4c-.7-1.5-.1-2.4,3.3-4.9,2.3-1.7,4.2-3.1,4.3-3.1.1-.1-.1,2-.3,4.6ZM678.5,701.5c-3.8,3.4-5.8,4.5-8.5,4.5-1.9.1-12.6.9-23.8,1.8-19.3,1.7-24.6,1.4-18.7-.8,1.5-.6,4.2-2.2,6.2-3.7,3.3-2.5,4.6-2.8,23.2-4.4,10.8-.9,21.2-1.7,23.1-1.7h3.5c0-.1-5,4.3-5,4.3ZM305.1,705.2l4.4,3.2-2.9.7c-3.1.9-6.1-.7-10-5q-1.9-2.1,1.1-2.1c1.8,0,4.8,1.3,7.4,3.2ZM667,711.4c0,.2-2.2,2.3-4.9,4.5-4.9,4.1-5,4.2-16.3,5.1-6.2.5-13.2,1.2-15.5,1.5l-4.3.5v-4c0-2.2.1-4,.3-4.1.1,0,9-.9,19.7-1.8,10.7-1,19.8-1.9,20.3-2,.4,0,.7.1.7.3ZM312.4,715.5c.3.8.2,1.5-.3,1.5s-1.4-.7-2.1-1.5c-1-1.2-1-1.5.3-1.5s1.7.7,2.1,1.5ZM648,726.4c0,.2-2.8,2.2-6.2,4.4-4,2.5-8.1,4.3-11,4.7l-4.8.7v-8.1l5.3-.5c12.9-1.4,16.7-1.7,16.7-1.2Z"></path>
  <path class="st0" d="M585.5,224c-6,1.2-15.1,4.6-20,7.4-4.9,2.9-10.8,7.7-10.2,8.2.2.3,4.6-1.2,9.8-3.3,8.1-3.2,10.5-3.7,17.4-3.7s15.9,1.7,19.1,5.1c1.4,1.5,3.6,6.4,5,11.2,3,9.8,6.2,14.1,10.7,14.1,6.4,0,9.7-4.6,9.7-13.8s-3.5-14.8-8.8-19.2c-7-5.8-20.9-8.3-32.7-6Z"></path>
  <path class="st0" d="M696.8,364.8c-.9,1.5-3.7,4.8-6.3,7.4-4.1,4.2-4.6,5.2-4.3,8.5l.3,3.8h6.2c3.9.1,7.1.8,8.7,1.8,3.2,2.1,5,2.1,6.7.1,1.1-1.3.8-2.6-2-8-4.2-8.2-3.9-10.8.7-6.9,4,3.4,5.1,2.6,2.9-2-1.7-3.6-4.6-5.9-8.8-6.9-2-.4-2.8,0-4.1,2.2Z"></path>
  <path class="st0" d="M269,291c-6,2-9.3,5.2-8.8,8.4.4,2.6,3.4,3.3,5.7,1.2.9-.9,4.5-3,7.9-4.7,4.4-2.1,6.2-3.6,6.2-5,0-2.5-3.5-2.4-11,.1Z"></path>
  <path class="st0" d="M280.1,296.3c-4.1,1.4-6.1,4.1-4.4,5.8s2.7.7,7.5-.5c3.5-.9,7.2-1.6,8.2-1.6s1.6-.6,1.4-2.3c-.3-1.9-1-2.2-4.8-2.4-2.5-.1-6,.3-7.9,1Z"></path>
  <path class="st0" d="M266.6,304.1c-3.1,2.4-4.8,6.1-4,8.3,1.3,3.3,16.4.6,18.9-3.4,1.2-1.9-1.5-4.1-3.5-3-2.6,1.4-2.7,1.3-2.6-1.3.1-3.2-5-3.6-8.8-.6Z"></path>
  <path class="st0" d="M281,314.8c0,2.8,3.7,5.2,8,5.2s8-2.3,8-4.6-1-1.4-3.7-1.3c-2.1.1-5.7-.2-8-.6-3.9-.7-4.3-.6-4.3,1.3Z"></path>
  <path class="st0" d="M227.3,317.6c-.3.8,0,2.7.6,4.1.7,1.4.8,2.9.4,3.3-3.1,2.9-21.7,14.1-31.2,18.8-6.2,3.1-10.7,5.8-9.8,6,3.5.7,31.2-11.3,44.3-19.2,3.2-2,7.2-3.6,8.9-3.6,3.8,0,9.1-3.2,10-6,1-3.2-.1-3.6-5.4-1.6-5.1,1.8-8.5,1.3-11-1.8-1.7-2-6-2.1-6.8,0Z"></path>
  <path class="st0" d="M336.1,371.3c-3.8,1.5-7.1,5-7.1,7.8s1.3,3.3,2.9,5.1c4,4.5,9.9,4.4,19.7-.1,6.8-3.1,11.4-3.5,11.4-1s.7.9,1.5.9,1.5-.6,1.5-1.4c0-1.8-4.7-5.6-6.8-5.6s-3.1-1.4-4.9-3.2c-2.8-2.7-4.1-3.2-9-3.5-3.2-.1-7.3.3-9.2,1Z"></path>
  <path class="st0" d="M320,392c0,1.8,12.5,16.4,16.5,19.2,7.2,4.9,14.1,4.7,21.3-.6,5.6-4.1,8.3-8.6,8-13.1-.5-6.9-6.6-7.8-12.8-2-5.5,5.1-10.2,7.5-14.7,7.5s-5-.5-10.7-6c-6.2-6-7.6-6.9-7.6-5Z"></path>
  <path class="st0" d="M310.6,395.9c-1.8,1.9-2.2,5.1-.6,5.1s4.2-5.8,3.1-6.4c-.4-.3-1.6.3-2.5,1.3Z"></path>
  <path class="st0" d="M292.5,409.1c-9.4,4.8-13.2,8.2-14.1,12.5-.7,3.6,2.1,7.4,5.6,7.4s8-5.1,8.8-10.1c.6-4,1.4-5.2,5.1-8,4.2-3.2,5.3-5,3.4-5.6-.4-.2-4.4,1.6-8.8,3.8Z"></path>
  <path class="st0" d="M335.2,457.4c-4.1,2.5-9.2,4.7-11.5,5.1-6.9,1.1-8.2,1.6-6.6,2.6,2.4,1.5,12.2,1,16.4-1,5.4-2.4,13-11.2,9.8-11.1-.5,0-4.1,2-8.1,4.4Z"></path>
  <path class="st0" d="M489,337.3c-8.3,2.5-13.6,5.5-12.2,6.9s2.7.5,5.3-.1c11.3-2.6,25.9-.2,34.4,5.7,3.7,2.6,8.2,9.2,10.4,15.4,1,2.7.9,2.7-4-1.2-6.4-5-17.9-8.6-20.2-6.3-.4.3,3.3,2.6,8.3,5.1,14.2,6.9,21.1,16.3,21.8,29.7.6,10.8,2.4,11.7,11.2,5.9,13.3-8.8,16.2-13.7,17-28.2.5-9.6.7-10.4,3.3-12.8,1.7-1.5,2.6-3.2,2.3-4.1-.3-.8-.6-1.6-.6-1.8,0-.3-6.4-2.5-14.2-5-35.1-11.3-49.2-13.4-62.8-9.2Z"></path>
  <path class="st0" d="M476.3,365c-6.7,3.4-15.9,12.3-19.1,18.7-1.8,3.4-1.9,4.3-.8,5.8,1.7,2.4,4.3,1.3,5.7-2.2,3.5-9.2,10.7-18.3,17.3-21.8,2-1.1,3.6-2.3,3.6-2.7,0-1.1-.1-1.1-6.7,2.2Z"></path>
  <path class="st0" d="M493.4,370.7c-4.5,1.5-9,4-12.1,6.6-2.7,2.3-6.6,5.3-8.6,6.7-8.7,5.9-1.3,4.9,7.9-1.1,3.3-2.1,6.5-3.9,7.1-3.9s1.3,1.9,1.6,4.2c.4,2.8,1.5,5.1,3.6,7.1,2.6,2.6,3.7,3.1,8,3,8-.1,14.1-5.1,14.1-11.5s6.2,4.5,7.5,11.4c.7,3.9,2.3,5.2,4.6,3.8,1.9-1.3-.2-8.9-4.2-14.7-3-4.3-11.3-11.2-13.5-11.3-.7,0-2.5-.7-4-1.5-3.5-1.8-3.3-1.8-12,1.2Z"></path>
  <path class="st0" d="M574.3,417.9c-.6,1-6,5.6-12,10.1-19.5,15-22,18.4-18.8,26.6.9,2.4,2.1,4.4,2.5,4.4,1.4,0,2.1-1.8,1-2.5-1.7-1-1.1-6.6,1.1-10.1,1.1-1.8,6-6.5,10.9-10.4,9.5-7.6,14.1-12.3,16.5-17,1.7-3.3.7-4.2-1.2-1.1Z"></path>
  <path class="st0" d="M567.5,441.8c-9.1,4.2-10.1,4.9-11.5,8.2-1.6,3.8.3,7,5.1,9,4.4,1.9,7,.2,13.1-8.7,4.2-6.1,4.8-7.4,3.8-9.2-1.4-2.7-3.3-2.6-10.5.7Z"></path>
  <path class="st0" d="M598.3,446.2c-5.9,6.7-6.3,8.8-3.1,16.5,1.7,4.1,2.7,5.3,4.4,5.3s2.4-.9,3.3-4.4c1.5-5.9,1.4-16.9-.1-18.4s-2.2-1.5-4.5,1Z"></path>
  <path class="st0" d="M541,497.7c-6.1,1-12.8,3.4-13.3,4.6-.3.8-.1,2,.3,2.8.8,1.1,2.3.9,9.2-1.4,4.6-1.5,10-2.9,12.1-3.2,2.3-.4,3.7-1.1,3.4-1.8-.4-1.2-7.2-1.8-11.7-1Z"></path>
  <path class="st0" d="M567,497.7c0,2,9.1,6.3,15.5,7.3,11.6,1.9,21.3,9.3,23.6,18.2,1.6,5.8.7,6.9-2.9,3.6-3.5-3.4-16.9-10-25.3-12.6-7.3-2.3-25.4-4.6-27.1-3.6-.6.4,2,2.2,5.8,3.9,10.1,4.7,13,7.5,13.9,13.2.8,5.3,2.8,8.3,5.7,8.3s6.6,2.5,12.3,5.5c14,7.3,16.3,7.3,22.3,0,6.1-7.3,5.6-16.9-1.5-26.1-3.7-4.9-14.5-12.9-19.6-14.7-7.2-2.5-22.7-4.5-22.7-3Z"></path>
</svg></svg></g></g></svg></g><g id="dark-icon"><svg xmlns="http://www.w3.org/2000/svg" version="1.1" xmlns:xlink="http://www.w3.org/1999/xlink" xmlns:svgjs="http://svgjs.dev/svgjs" width="1000" height="1000"><g><g transform="matrix(1,0,0,1,0,0)"><svg xmlns="http://www.w3.org/2000/svg" version="1.1" xmlns:xlink="http://www.w3.org/1999/xlink" xmlns:svgjs="http://svgjs.dev/svgjs" width="1000" height="1000"><svg id="Layer_1" xmlns="http://www.w3.org/2000/svg" version="1.1" viewBox="0 0 1000 1000">
  <!-- Generator: Adobe Illustrator 29.2.1, SVG Export Plug-In . SVG Version: 2.1.0 Build 116)  -->
  <defs>
    <style>
      .st0 {
        fill: #0c1b60;
      }
    </style>
  </defs>
  <path class="st0" d="M447.5,161.6c-25,2.8-55,9.9-79,18.7-63.8,23.2-121.7,67.7-161.5,124.1-6.8,9.6-9.2,12.2-14.4,15.4-8.1,5.2-17.9,10.1-35.6,17.9-16.8,7.4-21.3,10.1-24,14.6-3.8,6.2-1.5,13.2,7.5,22.2,4.9,4.8,18.2,14.6,21.5,15.7s-.6,5.8-2.9,13.4c-16.8,55.9-18.5,119.6-4.6,176.2,6.8,27.6,14.9,49.4,27.9,74.7,18,35.3,37,60.9,65.7,89,16.4,16,28.2,25.7,45.9,37.8,47,32,99.7,51.4,156,57.3,21.3,2.2,63.5,1.5,83.2-1.5,97.4-14.6,181.4-67.6,235.3-148.6,31-46.6,48.2-93.9,55.6-153,1.9-15,1.6-59-.5-75-10-77.2-41.4-142.9-94.2-197.5-52.7-54.3-119.9-88.7-196.2-100.1-18.4-2.8-66.2-3.5-85.7-1.3ZM489.9,186.9c-6.7,1.8-14.9,3.1-22,3.5-54.5,3.3-106.1,20.6-151.9,50.9-5.8,3.8-11.2,7.5-12,8.2s-3.9,1.5-6.8,1.9-6,.9-7,1.2c-3.6,1.1,5.9-6.2,21.5-16.6,35.8-23.8,78.5-40.8,120.8-47.9,18.3-3.1,27.3-3.8,48.5-3.9h19.5l-10.6,2.7ZM574,193.9c10.1,1.8,24.6,5.4,25.6,6.4s-6.1.1-13.9-.1c-17.7-.5-23,.7-37.7,8.5-16,8.7-19,10-24.9,10.7-6.8.9-17.9,4.7-24,8.3-6.5,3.8-15.3,12.4-20.7,20.3-4,5.9-5.5,7.3-11.8,10.4-3.9,1.9-12.2,6.9-18.4,11-10.8,7.2-11.9,7.7-23,10.2-13.8,3.1-19.6,5.6-27.7,12.1-8.8,7.1-13.8,10.4-25.3,16.3-13.2,6.9-16.5,9.8-25.8,22.8-10.2,14.2-12,16.1-25.4,25.5-6.3,4.5-15.2,11.7-19.7,16-7.1,6.8-8.4,7.7-10.2,6.8-1.1-.6-2.4-1.1-3-1.1-1.7,0-1.3,3.1.5,4.5,1.4,1,1,1.9-3.4,7.6-2.8,3.5-7.2,9.1-9.8,12.4-4.4,5.6-4.6,5.8-4.1,2.8,1.1-5.8,9.4-25.3,15.3-35.7,20.9-37.4,72.7-101,102.4-125.8,25.6-21.3,54.5-35.3,92.5-44.7,33.1-8.1,65.3-9.9,92.5-5.2ZM433,203.6c-3.6,1.3-10.8,4.4-16,6.9-5.2,2.4-13.3,5.6-18,7-22.5,7-44.8,17.1-65.4,29.5-11.7,7.1-11.9,7.2-15.8,6.1-2.1-.7-3.6-1.6-3.3-2.1.9-1.4,20.3-13.3,31.5-19.3,21.7-11.5,49.6-21.9,73.1-27,6.2-1.4,12.3-2.8,13.4-3,6-1.4,6.3-.3.5,1.9ZM595.3,214.1c2.9.6,9.4,2.5,14.6,4.2,14.6,5,21.7,12.9,24.1,27,1.2,6.6.6,12.4-1.9,18.9-1.8,4.7-7.9,10.4-13.9,13.1-4.5,2-20.8,5.7-25.4,5.7s-.8.5-.8,1.1,3.4,1,11.3.7c13.4-.5,20.8-3,27.3-9,5.5-5,10.3-12.6,11.1-17.2.5-3.5.7-3.6,2.4-2,4.5,4.1,3.4,8.6-7.1,26.9-6.6,11.6-4.8,20.2,5.4,26.6,2.8,1.7,2.9,1.9,2.7,9.6-.4,13.3,5.3,23.5,15.9,28.8,4.8,2.5,14.5,3.1,19.8,1.2,3.4-1.2,4.2-1.2,4.2-.2,0,2.2-6.3,9.8-10.5,12.6-4.7,3.2-5.5,5-4.9,10.9.4,3.7.3,4.2-.6,2.7-.7-1.1-1.3-4.9-1.4-8.5-.1-6.2,0-6.6,2.3-7.2,1.3-.3,2.9-1.3,3.5-2.3,1.6-2.5-.7-4.1-9.4-6.7-9.8-2.9-11.7-3.9-18.4-10.1-5.3-4.8-14.6-15.9-14.6-17.4s.6-.5,1.3-.4c.6.1,2.7.1,4.5,0,5.3-.2,3.8-2.6-2.8-4.4-5.1-1.5-7.3-2.9-14.6-9.7-10-9.2-14.2-11-26.5-11s-8.4-.4-14.1-3.5c-3.4-1.9-8.4-4.5-11-5.7-2.6-1.3-4.8-2.6-4.8-2.9s4.4-2.3,9.8-4.4c11-4.3,19.2-8.4,19.2-9.7s-.3-1-8.4.7c-10.7,2.3-25.5,7.3-32.3,11-9.1,5-18.2,7.5-27.1,7.5h-7.6l4.7-4.4c2.6-2.6,6.2-7.6,8.3-11.8,4.5-8.9,11.3-19.6,14.2-22.2,2.4-2.1,2.9-4.6.9-4.6s-7.5,4.4-10.4,8.2c-1.3,1.8-4.3,6.4-6.6,10.3-8.7,14.9-19.8,22.9-36.4,26.1-9.6,1.9-14.5,1.3-26.5-3-7.2-2.6-8.8-3.6-7.3-4.1,6.3-2.3,18.5-8.5,18.5-9.4,0-1.5-.4-1.4-9.4,1.4-4.3,1.4-8.1,2.4-8.3,2.2-.9-1,10-9,16.8-12.3,10.8-5.3,13.6-7.7,17-14.9,4-8.6,10.6-14.5,19.3-17.3,11-3.6,12-3.1,5.6,3.1-3,2.9-9.3,9.2-14,14.1s-10.8,10.6-13.7,12.7c-6.3,4.7-7.1,5.9-4,5.9,6.2,0,14.6-6,34.2-24.7,19.5-18.5,27.2-24.2,41.4-30.6,8.4-3.7,21-4.3,34.4-1.6ZM653.3,222.8c3.4,1.6,7.7,4.1,9.5,5.7,3.3,2.7,7.2,9.2,7.2,11.8s2,5.2,4.5,10,4.5,9.6,4.5,10.7.5,2.2,1,2.5c.6.4,1-1.3,1-4.5v-5.1l4.1,3.3c4.7,3.8,11.9,13.4,14.9,19.9,2.3,5.2,2.6,12.6.5,15.6-.9,1.2-3.1,2.4-5.3,2.8-5.1.8-10.6,5.4-15.3,12.8-4.4,6.8-5.1,12.5-2.3,17.8.8,1.7,1.3,3.8.9,4.7-.4,1.3-.3,1.4.5.6s3.1-.9,5.9-.6c4.6.4,5.1.2,9.5-3.8,4.7-4.3,7.1-9.5,6.4-14-.5-3.9-2.3-3.3-4.7,1.7-1.7,3.6-2.5,4.3-3.2,3.2-2-3.1-1-7.8,2.5-11.7l3.4-3.7,2.8,2.5c7.3,6.7,7,19.6-.5,26.4-2.5,2.3-2.6,4.2-.4,8.6.9,1.9,1.7,5.5,1.8,8.2.2,4.7.5,5.2,6.8,11.2,5.5,5.3,6.8,7.1,8.2,12.1,1.5,5,1.6,7,.6,13.9-.6,4.5-1.1,12.2-1.1,17.2,0,7.8-.3,9.6-2.3,12.5-1.2,1.8-3.3,3.6-4.7,4-3.9,1.1-11.1,1-15.3-.2-4.5-1.2-6.1-.5-4.7,2,1.4,2.7,7.2,5.1,12.3,5.1s6.8,2.2,4.6,14.4c-.6,3.4-1.3,7.1-1.5,8.2-.6,3.5-4.9,4.6-12.4,3-4.7-1-7.2-1.1-9-.3-1.4.6-4.9,1.6-7.7,2.2-4.8,1-5.3,1-5.3-.6s1.1-2,2.9-2.4c1.7-.3,4.6-1.9,6.6-3.5l3.7-2.9,3.4,1.8c1.9,1.1,4.4,1.7,5.5,1.4,5.8-1.6,8.1-12.2,3.5-16.8s-5-3.1-8.2-4.1c-6.9-2-14.1-8-13-10.9.6-1.7.8-1.6,3.1.5,4.1,3.9,4.2,1.2.3-6.1-2.7-4.7-3.8-8.1-3.8-10.9v-4.2l4.1,3.5c6.8,5.9,16.1,7,26.2,3,2-.8,3.7-1.9,3.7-2.3s-4.4-.9-9.8-1.2c-7.9-.3-10.4-.8-13.4-2.6-4.4-2.7-5.5-5.5-3.5-8.5s2-4.6,2.6-7.6c.7-3.1,2.8-7.9,5-11.2,5.3-7.9,6-12.5,2.9-18.7l-2.3-4.7-12-.5c-13.2-.6-15.8-1.5-21.1-7.2-4.7-4.9-6.7-9.6-6.8-15.8-.1-7.9,1.2-9.2,3.6-3.8,2.2,4.8,5.5,8.8,7.4,8.8s.7-1.3-.8-4.8c-2.9-6.3-3.1-19-.5-24.3,6.1-12.3,22.6-18.5,35.6-13.3,5.1,2,6.1,1.3,3.5-2.4-3.6-4.8-7.9-6.4-16.4-5.9-13.1.7-23.6,7.3-28.6,18.1-1.3,2.8-2.4,6.5-2.4,8.2,0,4.9-2.2,6-6,3.2-4.7-3.4-7.4-8.4-7.4-13.7.1-6.5,1.9-9.7,13.8-23.9,5.4-6.4,7.6-11.7,7.6-18.2,0-11.3-9-23.5-19.7-26.6-3-.9-6.5-1.3-7.8-1-1.4.4-2.8,0-3.6-1-1.2-1.5-.5-1.6,8.4-1.1,8,.5,11,1.1,16,3.5ZM357.8,252.7c-3,3.2-6.9,7.6-8.5,9.9-3.7,5.3-8,10.4-8.7,10.4s-.6-.5-.6-1.2-1.2-2.7-2.6-4.5c-2.2-2.9-2.4-3.7-1.3-4.8,1.5-1.4,25.9-15.5,26.8-15.5s-2,2.6-5.1,5.7ZM316.3,264.8c6.2,2.8,11.9,8.2,14.6,14.1l2.4,4.9-8.8,12.7c-6.1,8.7-9.1,12.3-9.9,11.5s-3.6-1-6.9-1h-5.9l3.2-2.6c2.7-2.3,2.9-2.9,1.8-4.1-1.2-1.1-2.1-1.1-6,.7-3.4,1.5-5.7,1.8-9,1.4-3.6-.5-4.6-.3-5.1,1-.8,1.9,2.5,5.6,4.9,5.6s2.9,1.1,4.6,2.5c1.6,1.4,4.2,2.5,5.6,2.5s3.1.8,3.9,2.6c1.5,3.1,1.8,2.4-7.8,14.4-4.2,5.2-9.7,12.6-12.4,16.5-2.6,3.8-5.1,7-5.6,6.9-2.5-.3-2.9-.5-2.9-1.3s.9-1.1,2.1-1.4c4.1-1.1,1.3-3.2-4.9-3.8-3.4-.3-6.5-.9-6.8-1.2s1.2-1.1,3.5-1.7c3-.8,4.1-1.6,4.1-3s-.9-2.1-3.7-2.5c-6-.9-16.3-3.7-16.8-4.4-.2-.4,1.8-.8,4.5-.9,5.4-.1,9-1.5,9-3.6s-16.7-4.3-19.4-3.3c-2.8,1.1-1.9,4.7,1.5,6.1,2.5,1.1,2.8,1.4,1.4,2-1.2.4-1.6,1.4-1.3,3,.5,2.2-.9,3.1-19.1,11.9-20.6,10.1-32.4,14.6-45.6,17.7-16.5,3.9-32.6,3.5-38.5-.9-3.1-2.3-3.8-6.6-1.3-9.3.9-1.1,9-5.5,17.8-9.8,30.2-14.8,45.7-25.1,82.5-55,27.8-22.5,33.8-26.4,46.5-29.7,6.7-1.7,18.2-1,23.8,1.5ZM729.6,299.1c63.7,76.5,87.2,181.2,62.5,278.5-30.7,120.9-131,213.6-253.6,234.3-20.9,3.5-34.4,4.4-61,3.8-40.9-.9-71.3-6.9-108-21.4-90.9-36-161.2-113-188-206.2-8.9-30.9-11.8-52.4-11.9-86.6-.1-27.3.7-37,4.9-60,2-10.8,9.9-41.2,10.9-42.3.2-.1,2,.5,4,1.5,2.6,1.2,3.5,2.2,3.1,3.2-3.7,9.4-10,37.9-12.7,57.1-1.8,12.7-1.7,62.1,0,75,7.9,56.2,27.3,104,59.8,147.3,50.5,67.2,125.9,110.9,208.8,121.2,93.1,11.5,186-19.9,253.4-85.9,88.1-86.1,116.2-214,72.7-330.1-11.2-29.9-28.6-59.7-50.4-86.2-9.2-11.2-12.2-16.5-12.1-21.3.1-1.7,6.9,5.4,17.6,18.1ZM444,295.3c7.1,5.6,10.2,10.8,9.6,16.2-.6,4.9-3.5,7.5-8.3,7.5s-9.3,4.5-9.3,9.4-1.3,4.6-3.4-.3c-2.2-4.7-1.9-14,.4-15.8,1.2-.9,1.3-1.4.3-2.4-2.2-2.2-7.5-1.4-16.2,2.5-8,3.7-8.8,3.8-15.5,3.2l-7-.7,2.4,2.6c2.9,3.1,9.1,4.9,14.3,4.1,2.1-.4,6.9-2.2,10.6-4l6.8-3.4-2.4,4.5c-1.3,2.6-2.3,5.7-2.3,6.9,0,1.8-.8,2.5-3.5,3.3-1.9.5-4.9,2.1-6.6,3.5s-3.5,2.6-4,2.6c-1.5,0-6.9-2.9-11.6-6.3-3.5-2.5-4.8-2.8-7.7-2.3-3.9.7-4.7,2.3-1.8,3.3.9.4,3.5,2.2,5.7,4,2.2,1.9,4.9,3.6,6,3.9,1.9.5,2,1.1,1.5,8.8-.3,4.8-1.1,9-1.9,9.9-1.2,1.5-1.5,1.5-3.3-.8-2.1-2.8-4.5-3.2-7.2-1.2-1.9,1.4-2.1,3.4-.9,9.7.7,3.5,1.3,4.5,2.8,4.5s2.3-1,3-3.3c1.2-4,2.1-4.1,2.9-.1,1.2,6.3.6,9.4-2.6,13.9-3,4.1-3.4,5.4-4.4,16-1.3,14.2-3.9,20.4-11.3,27.7-6.5,6.5-17.3,12.2-24.3,13l-5.3.5,4.5-2.9c5.2-3.5,9.6-7.6,16.4-15.6,6.9-8.2,5.2-9-2.4-1.1-3.6,3.7-7.8,7.7-9.5,8.9-5,3.9-13.8,5.8-26.7,5.9-10.3.1-14.1.7-12.7,2,.2.2,3.7.9,7.7,1.4,4.7.7,8.9,2,11.9,3.8l4.6,2.7-2.9,1.5c-1.6.8-4.1,2.5-5.5,3.9l-2.6,2.4-1.2-2.9c-1.2-2.8-4.7-5.2-7.6-5.2-4.7,0-9.5,5.1-9.5,10.2q-.1,2.2-2.6-.6c-2.1-2.3-2.8-2.6-3.5-1.5-1,1.7-.2,4.7,1.8,7.1,2.4,2.7,8.8,4.3,15.9,3.9,1.2-.1,5-2.6,8.5-5.7,6.9-6.2,10.1-7.9,17.2-8.9,5.6-.9,5.7-.4,2.2,6.6-3.3,6.4-9.5,12.4-14.8,14.3l-4.2,1.4h3.7c2.1.2,6.3-.8,9.4-1.9,6-2.3,12.7-8.2,20.8-18.3l4-4.9.9,2.6c1.6,4.8-.7,9.8-7,15.1-10.4,8.8-15.4,11.5-23.8,13.3-6.6,1.3-9.1,1.4-16.4.4-18.9-2.7-27.5-10.4-28.8-25.9-1-11.8,2.8-18.2,10.8-18.2s6-1.8,2.8-4.1c-5.5-4.1-5.9-4.8-5.9-9.8s-1.4-7.3-3.3-3.4c-2.2,4.3-2.9,8.7-1.8,11.5.8,2.2.6,3-1.5,4.9-4.4,4.1-6.4,9.8-6.4,18.2s-.1,7.7-2.3,7.7-4.6,1.2-7.5,2.6c-4.6,2.3-5.5,3.3-8.4,9.2-3.3,7.1-4.8,15.5-2.9,16.6.7.5,1.1-.1,1.1-1.4s1.4-5.4,2.5-6.8c.1-.2,1.6,1.1,3.3,2.8s4,3,6.4,3c4.6,0,11.6-2.5,15.2-5.3l2.9-2.4,3.8,2.1c2.2,1.2,3.9,2.4,3.9,2.8s-1.5,2.4-3.2,4.4c-3,3.4-15.5,10.4-18.6,10.4s-1.1.4-.8.9c1.6,2.5,18.1-4.2,25.2-10.3,3.7-3.2,4.4-3.4,7.8-2.6,2.1.4,4,1,4.2,1.3.7.7-10.7,8.2-18.3,12.1-10.3,5.1-21.3,8.6-27.3,8.6s-5,.4-4.8,1.2c1.4,4.1,17.4,3.3,32.3-1.7,1.2-.4,0,1.2-2.8,3.8-14.3,13.6-25.9,18.9-36.5,16.8-4.1-.8-6.4-1.9-8.3-4-2.9-3.2-4.4-9.4-3.4-14,.6-2.7.9-2.9,4.1-2.4,4.1.7,4.3-.3.9-5.3-1.4-2-2.9-5.2-3.4-7-1.1-4,.1-13.8,2.4-20.3,1.4-4.2,7.8-13.6,13-19.5,2.4-2.6,2.7-2.7,4.4-1.2,2,1.8,8.1,3.3,8.1,1.9s-1.4-2.2-3-3.8c-4.4-4.2-8.1-11.2-8.7-16.6-.7-6,1.8-11.5,8.6-19.3,2.9-3.2,6.7-8.8,8.5-12.5,3.8-7.3,5.9-9.6,13.3-14.4,2.8-1.8,7.4-6,10.2-9.4,2.8-3.5,6.5-7,8.2-7.9,1.7-.8,2.8-1.1,2.5-.5-.4.6-.9,2-1.1,3-.3,1.6.4,1.4,4.2-1.5,6.1-4.7,11-7.1,18-8.9,17.5-4.6,28.7,2.4,32.4,20.2.7,3.4,1.6,6,2.1,5.7,1.4-.9.9-12.9-.7-17.5-3.3-9.2-11.2-15.6-20.7-16.8l-5.2-.6,8.9-5.2c9.6-5.6,14.4-6.6,18.1-3.8,1.5,1.1,1.6,1.4.4,1.5-.9,0-2.1-.5-2.8-1.2s-1.5-.9-2.3-.1c-1.6,1.6-.2,5.1,2.7,7,5,3.3,14.6-2.4,12.9-7.6-1.6-5.2-10.6-8.2-18.2-6.2-4.6,1.2-16.4,8.8-20.4,13-2.3,2.5-8.9,5.8-8.9,4.5s7.7-10.4,9.5-10.8c1.2-.3,5.3-2.4,9.1-4.6,4.3-2.5,9.8-4.6,14.6-5.7,4.3-1,7.8-2.1,7.8-2.5,0-2.6-17.2-1.3-23.3,1.9-1.6.8-3.1,1.2-3.3,1-1.1-1.1,7.6-6.9,14.6-9.8,12.9-5.4,15.2-6.9,25-16.4,11.8-11.4,13.4-12.5,18.7-12.5s5,.6,8.3,3.6c3.4,3.1,4.3,3.4,5.5,2.4,1.1-.9,1.4-2.2,1-4.1-.6-2.5-.4-2.8,2.7-3.2,1.8-.2,3.5-.4,3.8-.5s3,1.8,6,4.1ZM565.3,298.1c2.6,1,8.6,4.4,13.4,7.4s9.1,5.5,9.6,5.5,2.3.6,4,1.4c1.8.8,5.3,1.6,7.9,1.9,3.8.4,5.9,1.4,11,5.5,8.7,6.9,14.8,13.6,18.7,20.7,4,7.1,7.3,10.9,12.1,13.7,9.6,5.8,13.8,12.5,17.5,28.3,3.2,13.4,3.1,15.2-.2,8.5-3.8-7.7-10.8-14.5-16.3-16-4.3-1.2-14.9-.9-23,.5-3.4.7-3.6.5-5.3-3.4-3.2-7.1-6.7-7.4-12.1-1.1-5.8,6.9-5.6,17.2.4,32.3,1.6,4.1,4.2,12,5.6,17.4,2.6,9.6,2.6,10.1,1.4,21.5-.7,6.4-1,12.5-.8,13.6.9,3.2-1,11-3.3,14.3-2.1,3-1.3,3.7,2.2,1.9,4.2-2.3,6.1-10.3,7.4-32,.6-8.9.4-11.7-1.4-18.9-1.2-4.6-1.9-8.6-1.6-8.9.3-.4,3.8-.8,7.7-1l7-.4-1.7,2.6c-5,7.6,4.9,22.1,16,23.3,3.9.5,4.7.2,7.5-2.5,3.4-3.4,3.7-5.6,1.4-9.2-1.5-2.4-1.4-2.3.9.2,1.4,1.5,2.7,3.3,3,4,.2.7.8.9,1.3.5,1.3-1.3-5.6-13.5-10.3-18.3-5.9-5.9-11.8-7.7-23.8-7.2-5.1.1-9.2.1-9-.1s3-1,6.2-1.7c7.7-1.8,15.9-1.8,21.6.2,5.3,1.8,13.4,8.6,17.6,14.8,3.4,4.9,6.6,15.6,6.5,21.1-.1,2.2-.2,7.6-.3,12l-.2,8-2-2.8c-2.1-2.8-4.3-3.5-5.4-1.7-.3.5,1.2,4.7,3.4,9.2,5.7,11.6,7.2,18.3,7.2,31.3s-1.6,21.9-5.7,35.7c-3.8,13.2-11.2,32-13.4,34.3-1.1,1.2-2,2.7-2,3.3,0,2.2-14.4,15.8-19.1,18-8.9,4.3-16.3,2.2-28.4-7.7-14.5-12-21.6-14.8-35-13.8-9.2.7-16,2.6-35.3,10.1-16.8,6.6-24.8,8.3-42.2,9.1-17.5.7-24.6,2.3-38.8,8.6-18.1,8-21.8,9.1-30.8,9.3-7.1.1-8.7-.2-13.9-2.9-4.6-2.3-6.4-4-8.2-7.4-2.1-4-2.3-5.7-2.3-17.6s-2-28.5-6.1-40.1c-2.7-7.6-2.8-8.8-2.6-23.5.2-15.1.1-15.6-3.1-24.4-3.9-11-4-14.3-.3-23.7,1.6-4,3.2-9.7,3.5-12.7.8-6.3,1.9-8.6,9.2-19.5,6.8-10.1,9.4-18.1,9.4-29.1s.7-10.5,2.9-17.6c1.6-5.2,3.2-11,3.5-12.9.4-1.9,1.6-6.2,2.6-9.5s2.1-8.2,2.5-10.9c.7-5.4,4-9.6,7.6-9.6s5.6,1.6,9.9,3.5c9,4.1,10.8,4.2,14.4,1.4,2.3-1.8,2.6-2.7,2.6-8.7v-6.7l6.4-5.7c6.5-5.8,9.5-10.7,10.5-16.8.6-3.3.9-3.5,5.6-4.2,4.5-.6,43.1-3,67-4.1,5-.3,10.6-1.1,12.5-1.9,4-1.7,8.3-1.3,15.3,1.3ZM730.4,322c30,41.5,48.5,88.8,55.2,141.5,2,15.6,2.2,50.2.5,65.5-3.7,32.6-11.4,61.7-23.8,90-39.4,89.5-119.3,154.3-214.9,174.3-21.7,4.6-36.1,6-60.9,6-47.4,0-87.5-8.9-129.5-28.9-91-43.4-154.3-129.1-169-228.9-4.2-28.3-3.8-64.9,1.1-93.5,2.5-14.5,8.8-39.9,10.4-41.8.2-.2,1.7.4,3.3,1.2l3.1,1.6-2,6.7c-14.5,49.6-15.6,102.9-3.3,152.8,8.2,33.4,22,64.5,41.5,93.5,22.4,33.4,54.3,64.4,87.9,85.5,61.6,38.6,135.3,52.9,207.6,40.4,119.4-20.6,215.6-116,237.9-235.9,6.3-33.8,6.1-76.2-.6-110-7-35.7-20.1-68.7-39.6-99.7-3.5-5.7-7.1-12.6-7.9-15.5-.9-2.8-2.7-7.6-4-10.6-4-9-3.3-8.5,7,5.8ZM718,337.1c1.1,6.2,1.8,11.4,1.6,11.6-1.1,1.2-5.6-10.6-5.6-14.6s.9-9.5,1.7-8.8c.2.3,1.2,5.5,2.3,11.8ZM256.4,343.6c.9.3,1.6,1.7,1.6,2.9s1.2,3.3,3.1,4.8l3.1,2.4-4.9,3.1c-10.5,6.7-45.6,21.2-60,24.7-9.5,2.3-23.1,1.8-28.7-1.2-4.5-2.3-4.1-2.6,4.9-3.8,21.6-2.8,54.2-15.7,70.5-27.9,7.9-5.9,8-5.9,10.4-5ZM711.3,349.2c1.9,3,1.3,3.5-1.6,1.4-1-.8-1.5-2-1.1-3,.4-.9.7-1.6.8-1.4s1,1.5,1.9,3ZM271.4,356.5c1.8,1.4,4,2.5,4.9,2.5,2.1,0,2.1.6-.1,4.8-4.4,8.2-28.1,21.8-46.7,26.8-11.9,3.2-27.7,3.8-33.4,1.3l-3.5-1.5,8.7-2.1c20.2-5,48.5-18.8,59.5-29,3.1-2.8,6.1-5.2,6.5-5.3.5,0,2.3,1.1,4.1,2.5ZM740.4,381.7c.6,1.9.3,2.3-1.2,2.3-2.2,0-3.2-2.6-3.1-8v-3.5l1.8,3.5c1,1.9,2.2,4.5,2.5,5.7ZM267.9,383.3c-3.4,8.3-7.7,12.4-18.5,17.4-5.3,2.5-6.9,2.8-16.9,2.8-6.8-.1-12.2-.6-14-1.4-2.9-1.2-2.7-1.3,8.5-4.2,13.3-3.3,28.6-10.5,37-17.3,3-2.5,5.8-4.5,6.2-4.5.4-.1-.7,3.2-2.3,7.2ZM745.3,392.5c.9,2,1.7,3.8,1.7,4,0,.3-2.2.5-5,.5q-5,0-5-3.3c0-4.1.5-4.7,4-4.7s3,.8,4.3,3.5ZM750,404.6c1.9,4.8,1.4,5.2-5.5,5.6l-6.5.3v-3.7c0-4.1.7-4.6,6.8-4.7,3.7-.1,4.4.2,5.2,2.5ZM235.8,415.8c-5,1.5-16,1.2-16.5-.4-.3-.8,2.9-1.1,10.2-1,10.3.1,10.5.1,6.3,1.4ZM754.4,418.2c.3,1.7.3,3.5-.1,3.9-.5.4-4.3.9-8.5,1.1l-7.8.5v-3.8c0-4.3.6-4.5,10.1-4.8,5.6-.1,5.7-.1,6.3,3.1ZM252.7,417.9c1.3,2.1.6,6.1-1.1,6.1s-8.5.7-17.6,1.5-16.9,1.5-17.3,1.5c-1,0,.1-6.1,1.3-7.3.6-.7,19.7-2.8,31.5-3.6,1.1,0,2.5.7,3.2,1.8ZM725,438.9c-.6,9.1-1.4,18.2-1.8,20.1l-.8,3.5-4.3-7.8c-4.2-7.7-4.3-7.9-3.1-12.5,1.7-6.9,10.2-24.1,10.7-21.8.3,1,0,9.3-.7,18.5ZM758,431.4l.8,3.5-4.2.5c-2.2.3-7.1.8-10.8,1.1l-6.8.7v-8l7.8-.7c4.2-.3,8.6-.7,9.7-.8,2.6-.4,2.5-.4,3.5,3.7ZM253.5,432.6c.3,2,.4,3.8.2,4.1-.8.7-39.7,3.6-40.3,3-.4-.3-.3-2.2,0-4.2.6-3.2,1-3.5,4.4-3.6,2,0,10-.6,17.7-1.3s14.7-1.4,15.6-1.5c1.2-.1,1.9,1,2.4,3.5ZM760.4,442.2c1.6,6.1,1.3,6.3-14.6,7.4l-9.8.6v-3.6c0-2,.6-3.9,1.3-4.1.6-.2,5.7-.8,11.2-1.3s10.3-1,10.6-1.1c.4,0,.9.9,1.3,2.1ZM255.2,446l.3,3.9-5,.5c-2.7.3-11.1,1-18.5,1.6s-15.5,1.3-17.9,1.6l-4.4.6.8-3.9c.4-2.1.9-4,1.1-4.2.3-.4,17.1-1.9,41.5-4,1.3-.1,1.8.9,2.1,3.9ZM763.1,457.3c.3,2,.3,3.7,0,3.8-4.7.6-28.3,2.4-28.5,2.2s0-2,.3-4.1l.6-3.7,12.5-1.1c6.9-.6,12.9-1,13.5-.9.5.1,1.3,1.8,1.6,3.8ZM707,459.8c.6,2.4,2.7,6.1,4.7,8.3,3.5,3.8,3.6,4.1,2.4,7.8-1.5,5.1-1.4,9.6.4,15.6,1.6,5.1,1.3,9-1,13.5-1.1,2.1-1.1,3,.1,5,2.3,4.3,1.7,8.6-1.7,12.5l-3.2,3.6,2.2,3c3.1,4.1,2.5,7.2-1.6,8-5.6,1.1-8.5,4.8-9.8,12.6s-2.1,6.1-4.1,8.7c-1.9,2.5-3.4,4.9-3.4,5.3,0,2.3-16.3,14.7-23.1,17.6-4.1,1.9-2.2,2.1,5.7.6,3.2-.6,8.3-2.4,11.3-4.1l5.4-3-.8,3.9c-1,5.6-5.3,12.9-11.4,19.5-4.2,4.6-7.5,6.9-15.7,10.9-7.4,3.6-11.2,4.9-13.6,4.7-3-.3-3.3-.6-3.3-3.7s.9-4.3,12.5-9.8c1.4-.6,4.7-2.1,7.3-3.3,3.2-1.6,4.7-2.8,4.5-3.9-.2-.9-1.2-1.5-2.3-1.4-2.9.2-12.6-4.7-15.7-7.9l-2.6-2.8,2.3-5.7c1.2-3.1,3.1-6,4.1-6.4,1.1-.4,4.6-.8,7.9-.8,7.8-.1,12.7-1.5,16.6-4.8,3-2.6,3.1-2.9,2.5-8-.3-3-.7-5.9-.9-6.6-.1-.6,2.1-1.8,4.8-2.7,6.4-2.1,8.7-5.8,6.2-10.1-1.3-2.4-1.3-3-.2-3.9.9-.8,1.3-2.9,1.2-6.2-.2-4.9-.1-5.1,5.2-9.8,5-4.4,5.3-5,4.7-8.1-1.1-5.8-5.8-9.9-11.3-9.9s-5,1.1-9.6,7.6c-2,2.8-5.3,6.4-7.3,7.9l-3.6,2.7.7-6.8c.6-5.7,1.3-7.5,3.9-10.5,4.1-4.8,8.6-7.8,13.6-9.3,5.4-1.6,5.2-3-.5-3.4-3.2-.2-6.2.4-10,2.2-2.9,1.3-5.6,2.2-5.9,1.8-.3-.3-.6-2-.6-3.8,0-2.6.6-3.6,3.6-5.3,1.9-1.2,4.3-2.1,5.2-2.1s3.5-.7,5.7-1.5c4.9-1.7,15.7-1.9,17.3-.3s2.7.2,1.2-1.7c-.8-.9-2.6-2.3-4.1-3.1-2.4-1.2-2.8-1.9-2.3-4.3.7-3.5-1-7.1-3.4-7.1s-2.7-.7-3.8-1.5c-1.8-1.3-1.7-1.4,1.6-1.5,1.9,0,5.1-.8,7-1.9,1.9-1,3.6-1.6,3.7-1.2.1.3.7,2.5,1.3,4.9ZM254.4,457.2c-2.1,6.9-.2,6.3-23.9,8.2-12,.9-21.9,1.5-22.1,1.3s-.1-2,.3-4c.4-2.9,1-3.7,2.7-3.8,2.2-.1,41.4-3.5,42.9-3.8.5,0,.5.9.1,2.1ZM764.4,467.6c.3.9.6,2.6.6,3.9,0,2.7-1.1,3-14.5,4-4.4.3-10.3.8-13.2,1.1l-5.2.6.6-3.8c.3-2.2.7-4,.8-4.2.2-.2,6.8-.9,14.7-1.6,7.8-.8,14.6-1.4,14.9-1.5.4,0,1,.6,1.3,1.5ZM248.5,472.7c-.9,2-1.7,3.9-2,4.1-.4.4-31.3,3.1-36.3,3.2-3.2,0-3.3-.1-3-3.8l.3-3.7,18-1.6c9.9-.9,19.5-1.7,21.3-1.8h3.2c0-.1-1.5,3.6-1.5,3.6ZM368.5,478.7c5.6,11.6,6.7,18.4,4.9,30.2-3.1,21.2-10,34.6-20.9,40.4-6.2,3.3-18,3-26-.6-12.8-6-21.2-14.6-23.9-24.9l-1.5-5.3,3.2-2.9c3.5-3.3,2.9-3.9,6.7,6.5,2.3,6.2,8.6,14.1,13.1,16.5,1.6.8,2.9,1.2,2.9.9s-1.7-2.9-3.9-5.8c-5.1-6.8-7.6-12-9-18.5-.6-2.9-1.1-5.7-1.1-6.1s3.4-3.6,7.5-7,7.5-5.8,7.5-5.3-1.2,2.5-2.7,4.7c-2.5,3.6-2.8,4.8-2.8,12.7s.2,8.9,3,12.9c4.6,6.4,7.8,8.4,13.5,8.3,5.3-.2,13.9-3.7,19.4-7.9,3.7-2.8,9.2-10.2,8.3-11.1-.3-.4-2.5.9-4.9,2.9-4.3,3.4-8,5.7-9.4,5.7s1.1-1.3,3.4-2.9c5.8-4.3,10.5-14.2,11-23.3.4-6.6-2-17.6-4.9-23.1-.8-1.4-.6-2.2.8-3.3,1-.7,1.9-1.4,1.9-1.4.1,0,1.9,3.5,3.9,7.7ZM765.8,484.1l-.3,3.4-14,1.2c-7.7.6-15.9,1.2-18.1,1.2h-4.2c0,.1,1-3.9,1-3.9.9-3.6,1.4-4,4.2-4.1,1.7,0,9.2-.6,16.6-1.3s13.9-.9,14.3-.5c.5.3.7,2.2.5,4ZM245,484.7c-.1,6,.3,5.8-19.7,7.4-20.2,1.5-20.3,1.5-18.6-3.8q1-2.8,13.9-3.9c20.8-1.8,24.4-1.7,24.4.3ZM766,496.8v3.8l-19.7,1.6c-10.9.9-19.9,1.5-20.1,1.3s.3-2,1-4.1l1.3-3.9,13-1.1c7.2-.6,15.6-1.2,18.8-1.2l5.7-.2v3.8ZM243,499.6c-.5,1.9-1,3.7-1.2,3.9-.6.7-34.2,3.3-35,2.8-1.3-.7-.9-7.3.5-7.4.6,0,7.3-.6,14.7-1.3,7.4-.8,15.4-1.4,17.6-1.5h4.2c0-.1-.8,3.5-.8,3.5ZM766,509.5c0,2-.6,3.8-1.2,4-.7.2-7.4.9-14.8,1.5s-15.6,1.3-18.2,1.6l-4.7.6.6-3.9c.3-2.1.7-4,.9-4.2.4-.4,26.1-2.8,32.7-3h4.7c0-.1,0,3.4,0,3.4ZM238.6,510.6c-.3.9-1.6,2.8-2.9,4.4-2,2.5-3,2.8-10.7,3.4-4.7.4-10.6.9-13.2,1.2l-4.8.6v-4.1c0-3.2.4-4.1,1.8-4.2.9,0,7.6-.6,14.7-1.4,7.2-.7,13.6-1.3,14.4-1.4s1.1.5.7,1.5ZM250.4,518.4c.3,1.4,1.9,3.8,3.6,5.4,3,3,3,3.1,1.2,6.1-2.2,4-4.7,4-6.1,0-.9-2.7-1.3-3-2.6-1.9-3.5,2.9-.8,9.8,5.5,14.5,9.5,7,22.9,2.6,32.4-10.8,2.5-3.5,5.7-6.9,7.2-7.6,1.5-.6,2.7-1,2.8-.9.2.2.8,2.2,1.5,4.6,1.2,4.3,1.2,4.4-2.8,9.6-4.2,5.7-11.5,11.1-16.2,12.1-4,.9-3.7,2.5.6,2.5,6.1,0,14.2-3.8,19.5-9.1s7.4-4.7,3.3,3.7c-5.1,10.6-17.3,20.8-29.5,24.8-1,.3-1.8,1.3-1.8,2.2,0,2.6,7,1.2,15.7-3.1,7.1-3.5,7.5-3.6,8.8-1.8,3.4,4.4,3,12.1-.7,16.8-2.6,3.4-9.1,6.4-13.7,6.5-7,0-11.3-2.2-19.7-10.3-9.1-8.6-11.2-12.3-9.4-15.7,1-1.8,1.6-2,4.3-1.3,5.3,1.3,12,.9,16.5-1.1,2.3-1,3.9-2.3,3.6-2.7-.3-.5-2.9-.9-5.8-.9-7.9,0-14.4-2.4-21.3-8-7.7-6.1-10.7-11.5-9.6-16.8.4-2,.6-4.1.5-4.5s.3-1.8.9-3c1.4-2.6,9.1-11.6,10-11.7.4,0,1,1.1,1.3,2.4ZM765,522.9v3.8l-5.7.6c-3.2.4-12.3,1.2-20.2,1.8l-14.4,1.2-1.8-2.4c-1.7-2.3-1.7-2.5-.1-4.1,1.3-1.2,5.7-2,18.7-3.1,25.7-2.2,23.5-2.4,23.5,2.2ZM229,523.9c0,.5-.7,2.4-1.4,4.3l-1.5,3.5-8.2.6c-4.5.4-8.6.4-9,.1-.5-.3-.9-2-.9-3.9v-3.3l6.3-.6c5.4-.5,8.2-.8,13.5-1.5.6,0,1.2.3,1.2.8ZM763.5,535.7c-.4,2.1-.9,4-1.1,4.2-.6.6-39.4,3.8-39.4,3.2s.5-2,1.1-4.1l1.1-3.7,17.7-1.5c9.7-.8,18.4-1.6,19.5-1.7,1.6-.1,1.7.4,1.1,3.6ZM226.9,540.7c.6,2,.9,3.8.8,3.9s-4.1.4-8.9.8l-8.8.7v-2.5c0-1.3-.3-3.1-.6-4-.6-1.6,1.9-2.1,11.8-2.4,4.6-.2,4.7-.1,5.7,3.5ZM761.5,549.2c-.4,1.8-1,3.6-1.4,3.9-.6.7-36.6,3.9-42.9,3.9s-3.9-.6-.4-4.7l2.7-3.3,15.5-1.4c8.5-.7,18.1-1.4,21.3-1.5h5.9c0-.1-.7,3.1-.7,3.1ZM233.2,553.4l2.8,3.5-5.3.5c-2.8.3-7.8.8-11.1,1.2-6.5.6-7.6,0-7.6-4.8s1.2-3.3,13-3.6c5.2-.2,5.7,0,8.2,3.2ZM318.9,563.2c2.2,2.7,5.1,9.9,5.1,12.4s-1.6.3-4.8-1.6c-5.6-3.5-12.4-4.5-13-1.8-.2,1.1.9,2.3,3.5,3.7,5.2,2.6,10.6,8.5,14,15.1,2.5,5,2.8,6.5,2.8,16s-.2,10.9-2.7,15.2c-3.4,5.7-9.5,11.1-16.8,14.8-7.9,4-13.2,4.5-20.5,2.2-5.8-1.9-5.9-2-2.3-2.1,13.4-.4,26.4-6.7,35.1-17,4.8-5.8,3.1-6.3-4.4-1.1-3.8,2.6-10,6.1-13.7,7.6-5.8,2.5-8,2.9-16.7,2.9s-15.5-1.6-19.9-6.4-2.5-2.1-3.3-2.1c-3.4,0-8.9-17.9-7.7-24.9q1-6.2,6.9-2.6c5.9,3.5,12.9,5.5,19.4,5.5s4.1.5,4.5,1.6c.8,2,.8,7.8,0,9.8s-6.9,3.1-12,1.1c-2.5-.9-4.7-1.6-4.9-1.4s1.1,2.1,2.9,4.3c2.7,3.2,4.1,3.9,7.9,4.3,8.9,1,20.2-5.8,24.9-15.1,2.5-5,3.4-13.9,1.9-19.1-.7-2.2-1.9-6.9-2.6-10.4-.8-3.6-2.4-7.4-3.6-8.7l-2.2-2.3,4.7-5.2c2.5-2.8,4.6-5.6,4.6-6.1,0-1.2,10,7.6,12.9,11.4ZM758.5,562.7c-.4,2.1-.8,3.9-.9,4-.4.4-46.3,4.3-50.3,4.3h-3.4l2.2-4c1.5-2.6,3-4,4.3-4.1,1.2,0,11.3-.8,22.6-1.8,29.1-2.6,26.4-2.8,25.5,1.6ZM240,565.9v3.9l-7.2.6c-4,.4-9.4.9-11.9,1.2l-4.6.5-1-4-1-4,7.6-.6c4.2-.3,8.5-.7,9.6-.9s3.5-.4,5.3-.5c3.1-.1,3.2,0,3.2,3.8ZM354.7,573.2c-5,19.7-3.1,41.1,6.6,74.3,1.9,6.6,5.4,21.9,7.7,34s4.6,22.9,5.1,24c.6,1.2.8-5.4.4-17.3-.5-19.8.4-28.3,4-39.3,2.1-6.1,12.4-16.3,18.1-17.7,10.2-2.6,15.7-2.4,25.2.8,18.4,6.2,33.7,6,50.5-.6,4.8-1.9,12.7-5,17.6-6.9,15.6-6.1,26.2-6.6,35.9-1.6,3.7,1.9,12.5,10.6,17.4,17.1,2.6,3.6,7.6,21.3,9.8,35.2,1.3,8.3,1.5,43.5.2,46.8-1.6,4.2-2.4,13.7-1.7,19.5.6,4.7,1.1,5.6,3.1,6.1,3.2.8,9.8-4.7,11.4-9.6.7-1.9,3.5-9.3,6.2-16.4,4.5-11.7,9.6-30,13.4-47.9.8-3.8,1.9-7.7,2.5-8.8,1-2,1.1-2,3.1-.2,3.3,3,9.8,13,13.5,20.9,1.8,4.1,4.9,13.5,6.9,21.1,3.4,13.2,6.9,36.8,5.7,38.6-.8,1.3-17.8,9.1-30.9,14.2-34.5,13.4-68.1,19.1-106.9,18.2-30-.7-52.1-4.4-78.4-12.9-10.8-3.5-29.1-10.6-29.1-11.2s-.7-7.4-1.5-16.2c-2.6-27.4-4.9-39.6-18.8-103.4-2.9-13.5-3.1-15.9-3.2-34,0-18,.2-19.9,2.2-24.3,2.3-4.8,5-6.6,4-2.5ZM756,573c0,.6-.6,2.5-1.4,4.3l-1.3,3.3-21.9,1.7c-12.1,1-23.8,2-26.1,2.3l-4.3.6.6-3.3c.4-1.9,1-3.8,1.5-4.3s12.2-1.9,26.1-3.1c13.9-1.3,25.6-2.3,26.1-2.4.4,0,.7.4.7.9ZM242,575.9c0,.5.3,2.2.6,3.9l.6,3-8.8.7c-4.9.3-10.1.8-11.6,1.1-2.3.5-2.8.1-3.8-3.1-.7-2-1-3.9-.7-4.1.5-.5,14.1-2,20.5-2.3,1.7,0,3.2.3,3.2.8ZM752,586.4c0,.2-.7,2-1.5,3.9-1.4,3.3-1.9,3.6-6.7,4.1-9.3,1.1-40.8,3.6-44.4,3.6h-3.4l2-4c1.6-3.1,2.6-4,4.8-4.1,1.5,0,11.5-.9,22.2-1.8,20.6-1.9,27-2.3,27-1.7ZM244,592c0,3.5-.3,4-2.2,4.1-1.3,0-5.6.4-9.7.8l-7.4.7-1.4-3.4c-.8-1.9-1.2-3.7-.8-4,.5-.5,11.1-1.7,18.3-2.1,3.1-.1,3.2,0,3.2,3.9ZM745.5,603.7c-.9,2-1.7,3.8-1.8,3.9s-9.4.9-20.7,1.8-23.2,1.9-26.4,2.3l-5.9.6.7-3.4c.3-1.8,1-3.7,1.5-4.2.9-.9,37.2-4.4,47.9-4.6h6.2c0-.1-1.5,3.6-1.5,3.6ZM244.5,604.6c.3,2,.5,3.8.2,4-.2.2-3.7.7-7.8,1l-7.4.7-1.3-3.5c-.6-1.9-1.2-3.7-1.2-4.1s3-.8,6.8-1c3.7-.2,7.4-.4,8.3-.5,1.2-.1,1.9.9,2.4,3.4ZM683,623.9c1.6,11.4-.9,20.7-7.7,28.1-5.5,6.2-10.8,8.2-22.2,8.6-6.5.2-9.8.7-10.8,1.7-.8.7-2.2,4.5-3.2,8.3s-3,9.4-4.6,12.4c-2.8,5.6-8.3,13-9.6,13-2.9,0-.6-15.8,4.1-27.3,1.7-4.4,3.4-10.7,3.7-14.3l.6-6.4,3.2,3.8q3.3,3.7,5.4,1.8c1.2-1.1,1.9-2.6,1.7-3.5-.3-.9-.8-2.8-1.1-4.3l-.7-2.7,3.8,2c2.1,1,5.4,1.9,7.3,1.9,7.1,0,22.1-10,22.1-14.8s-.9-2.8-5,.3c-3.4,2.5-8.4,3.3-9.4,1.6-.3-.5.5-1.2,1.9-1.5,3.1-.8,10.5-7.3,10.5-9.2s-2.6-1.9-3.5-.4c-1.2,1.9-8.4,5-11.8,5s-9.7-3.5-10.5-5.9c-.4-1.1.2-1.3,2.6-.8,7.2,1.5,22.8-3.1,27.3-8l2.4-2.5,1.3,3.1c.6,1.7,1.7,6.2,2.2,10ZM741,613.5c0,.3-.9,2.3-1.9,4.3l-1.9,3.7-22.2,1.8c-12.1,1-22.5,1.5-23.1,1.2-.5-.4-.9-2.2-.9-4.1,0-3.2.2-3.4,3.3-3.5,1.7,0,12-.9,22.7-1.8,23.5-2.2,24-2.2,24-1.6ZM247.9,617.9l2,3.8-6.6.7c-7.2.7-8,.4-10.1-4.6l-1.1-2.7,5.2-.4c2.9-.2,6-.4,6.9-.5,1.1-.1,2.5,1.2,3.7,3.7ZM255.4,630.2c3.1,4,2.4,4.5-6.4,4.9-6.2.3-6.5.1-8.2-2.7-2.4-3.8-2.3-4.2,1-4.7,8.4-1.3,11-.8,13.6,2.5ZM734,627.5c0,.6-2.9,6.6-3.5,7.3-.3.3-31.9,3.2-35.7,3.2s-2.8-.3-2.8-3.9v-3.8l16.3-1.2c8.9-.7,16.7-1.4,17.2-1.6,1.7-.6,8.5-.5,8.5,0ZM332.8,637.3c4.6,3.5,5.7,3.9,9.1,3.3l3.8-.6,1.7,7.7c1.1,5,1.3,8,.7,8.6s-4.3,1.2-8.4,1.5c-10.9.7-20.9-2.7-30.2-10.2l-2.9-2.4,5.1-2.5c4.2-2.2,5.3-2.4,6.2-1.3,2,2.3,14.9,7.8,17.8,7.4,3.7-.4,3.6-2.8-.2-4.7-1.6-.9-5.4-3-8.3-4.9-5.2-3.2-5.3-3.4-3.7-5.2,2-2.2,1.9-2.2,9.3,3.3ZM265.8,642.9l3.1,3.8-9.2.7-9.2.7-2.2-2.8c-3.6-4.4-3-5.2,4-5.6,3.4-.2,7.1-.4,8.3-.5,1.3-.1,3.2,1.2,5.2,3.7ZM724.8,644.6c-1.2,2-2.6,3.8-3.3,4-1.2.5-31.8,3.3-32.2,3-.1-.1.4-2,1.1-4.1l1.4-4,12.4-1.1c6.7-.6,14.6-1.2,17.5-1.3h5.2c0-.1-2.1,3.5-2.1,3.5ZM309.3,657.9c2.2,1.2,2.4,1.7,1.6,3.8-.5,1.3-.9,3.5-.9,4.8,0,1.9-.5,2.3-2.6,2.2-4.4-.3-5.1,2.2-2.5,9.2,2.6,6.8,6,11.1,9,11.1s8-4.8,10.1-11.7c1.1-3.6,2-7.8,2-9.4s.5-2.9,1.9-2.9c2.3,0,3.1,2.6,3.1,10.3s-5.4,17.2-14,19.8c-3.7,1.1-4.2,1-8-1.6-5.4-3.7-8.6-9.5-9.9-17.4-.7-4.3-1.8-7.3-3.4-9-4.4-5-5-6.2-5.6-12.6l-.7-6.4,4.6-.3c4.2-.3,4.8,0,8.6,4.2,2.3,2.5,5.3,5.2,6.7,5.9ZM275.4,651.6c1,.4,1.6,1.8,1.6,3.9,0,3.3,0,3.4-5.7,4-3.2.3-7.4.8-9.3,1-3.1.4-3.8,0-5.9-3.1-1.3-1.9-2.2-3.7-1.9-3.9.3-.3,4.5-.9,9.4-1.4,4.9-.4,9.2-.9,9.6-1,.3,0,1.3.2,2.2.5ZM715.3,659c-1.5,2.2-3.5,4-4.3,4-.8.1-8.2.7-16.5,1.4-8.2.8-15.1,1.3-15.2,1.2,0,0,1.6-2,3.6-4.3l3.8-4.2,9.9-.9c5.4-.5,12.5-1,15.7-1.1h5.8c0-.1-2.8,3.9-2.8,3.9ZM280.1,667.9l2.7,3.8-7.4.7c-7.2.7-7.5.6-9.9-2.1-3.7-4.3-3.2-5.2,3.3-5.6,3.1-.2,6.4-.4,7.2-.5s2.7,1.6,4.1,3.7ZM705.4,672.2c-1.6,1.8-3.1,3.6-3.4,4.1-.6.7-44.6,4.7-51.8,4.7h-3.3l1.7-2.9c1-1.6,2.7-3.5,3.9-4.1,2-1.1,38-4.6,49.9-4.9h6c0-.1-3,3.1-3,3.1ZM289.7,678.2c.6.7,1.2,2.3,1.5,3.5.7,2.5-1.2,3.3-8.5,3.3s-5.1-.4-7.6-3.3l-3-3.2,2.7-.6c4.9-1.2,13.9-1,14.9.3ZM692.9,686.7c-1.8,2.1-3.5,3.9-3.6,4.1-.2.4-42.3,4.1-46.5,4.2-1.6,0-1.5-.4.4-3.8,1.2-2,2.3-3.9,2.5-4.1.3-.4,38.6-3.8,45.7-4h5c0-.1-3.5,3.6-3.5,3.6ZM293.4,694.1c1,4.5-2.5,4.4-7-.2l-3.7-3.8,4.4-.3c4.6-.3,5.3.1,6.3,4.3ZM329.3,700.7c-.5,5.3,2.4,15.1,5.4,18.6,1,1.1,5.2,3.5,9.3,5.4,4.1,1.8,9.8,5.2,12.7,7.4,2.8,2.3,5.6,3.8,6.2,3.5,1.4-.9,1.8.2,2.6,7.9l.7,7-4-4.1c-4.9-5.1-9.5-8.3-24.5-16.9-13.3-7.6-14.7-9.3-14.7-18s-.4-6.4-1-7.4c-.7-1.5-.1-2.4,3.3-4.9,2.3-1.7,4.2-3.1,4.3-3.1.1-.1-.1,2-.3,4.6ZM678.5,701.5c-3.8,3.4-5.8,4.5-8.5,4.5-1.9.1-12.6.9-23.8,1.8-19.3,1.7-24.6,1.4-18.7-.8,1.5-.6,4.2-2.2,6.2-3.7,3.3-2.5,4.6-2.8,23.2-4.4,10.8-.9,21.2-1.7,23.1-1.7h3.5c0-.1-5,4.3-5,4.3ZM305.1,705.2l4.4,3.2-2.9.7c-3.1.9-6.1-.7-10-5q-1.9-2.1,1.1-2.1c1.8,0,4.8,1.3,7.4,3.2ZM667,711.4c0,.2-2.2,2.3-4.9,4.5-4.9,4.1-5,4.2-16.3,5.1-6.2.5-13.2,1.2-15.5,1.5l-4.3.5v-4c0-2.2.1-4,.3-4.1.1,0,9-.9,19.7-1.8,10.7-1,19.8-1.9,20.3-2,.4,0,.7.1.7.3ZM312.4,715.5c.3.8.2,1.5-.3,1.5s-1.4-.7-2.1-1.5c-1-1.2-1-1.5.3-1.5s1.7.7,2.1,1.5ZM648,726.4c0,.2-2.8,2.2-6.2,4.4-4,2.5-8.1,4.3-11,4.7l-4.8.7v-8.1l5.3-.5c12.9-1.4,16.7-1.7,16.7-1.2Z"></path>
  <path class="st0" d="M585.5,224c-6,1.2-15.1,4.6-20,7.4-4.9,2.9-10.8,7.7-10.2,8.2.2.3,4.6-1.2,9.8-3.3,8.1-3.2,10.5-3.7,17.4-3.7s15.9,1.7,19.1,5.1c1.4,1.5,3.6,6.4,5,11.2,3,9.8,6.2,14.1,10.7,14.1,6.4,0,9.7-4.6,9.7-13.8s-3.5-14.8-8.8-19.2c-7-5.8-20.9-8.3-32.7-6Z"></path>
  <path class="st0" d="M696.8,364.8c-.9,1.5-3.7,4.8-6.3,7.4-4.1,4.2-4.6,5.2-4.3,8.5l.3,3.8h6.2c3.9.1,7.1.8,8.7,1.8,3.2,2.1,5,2.1,6.7.1,1.1-1.3.8-2.6-2-8-4.2-8.2-3.9-10.8.7-6.9,4,3.4,5.1,2.6,2.9-2-1.7-3.6-4.6-5.9-8.8-6.9-2-.4-2.8,0-4.1,2.2Z"></path>
  <path class="st0" d="M269,291c-6,2-9.3,5.2-8.8,8.4.4,2.6,3.4,3.3,5.7,1.2.9-.9,4.5-3,7.9-4.7,4.4-2.1,6.2-3.6,6.2-5,0-2.5-3.5-2.4-11,.1Z"></path>
  <path class="st0" d="M280.1,296.3c-4.1,1.4-6.1,4.1-4.4,5.8s2.7.7,7.5-.5c3.5-.9,7.2-1.6,8.2-1.6s1.6-.6,1.4-2.3c-.3-1.9-1-2.2-4.8-2.4-2.5-.1-6,.3-7.9,1Z"></path>
  <path class="st0" d="M266.6,304.1c-3.1,2.4-4.8,6.1-4,8.3,1.3,3.3,16.4.6,18.9-3.4,1.2-1.9-1.5-4.1-3.5-3-2.6,1.4-2.7,1.3-2.6-1.3.1-3.2-5-3.6-8.8-.6Z"></path>
  <path class="st0" d="M281,314.8c0,2.8,3.7,5.2,8,5.2s8-2.3,8-4.6-1-1.4-3.7-1.3c-2.1.1-5.7-.2-8-.6-3.9-.7-4.3-.6-4.3,1.3Z"></path>
  <path class="st0" d="M227.3,317.6c-.3.8,0,2.7.6,4.1.7,1.4.8,2.9.4,3.3-3.1,2.9-21.7,14.1-31.2,18.8-6.2,3.1-10.7,5.8-9.8,6,3.5.7,31.2-11.3,44.3-19.2,3.2-2,7.2-3.6,8.9-3.6,3.8,0,9.1-3.2,10-6,1-3.2-.1-3.6-5.4-1.6-5.1,1.8-8.5,1.3-11-1.8-1.7-2-6-2.1-6.8,0Z"></path>
  <path class="st0" d="M336.1,371.3c-3.8,1.5-7.1,5-7.1,7.8s1.3,3.3,2.9,5.1c4,4.5,9.9,4.4,19.7-.1,6.8-3.1,11.4-3.5,11.4-1s.7.9,1.5.9,1.5-.6,1.5-1.4c0-1.8-4.7-5.6-6.8-5.6s-3.1-1.4-4.9-3.2c-2.8-2.7-4.1-3.2-9-3.5-3.2-.1-7.3.3-9.2,1Z"></path>
  <path class="st0" d="M320,392c0,1.8,12.5,16.4,16.5,19.2,7.2,4.9,14.1,4.7,21.3-.6,5.6-4.1,8.3-8.6,8-13.1-.5-6.9-6.6-7.8-12.8-2-5.5,5.1-10.2,7.5-14.7,7.5s-5-.5-10.7-6c-6.2-6-7.6-6.9-7.6-5Z"></path>
  <path class="st0" d="M310.6,395.9c-1.8,1.9-2.2,5.1-.6,5.1s4.2-5.8,3.1-6.4c-.4-.3-1.6.3-2.5,1.3Z"></path>
  <path class="st0" d="M292.5,409.1c-9.4,4.8-13.2,8.2-14.1,12.5-.7,3.6,2.1,7.4,5.6,7.4s8-5.1,8.8-10.1c.6-4,1.4-5.2,5.1-8,4.2-3.2,5.3-5,3.4-5.6-.4-.2-4.4,1.6-8.8,3.8Z"></path>
  <path class="st0" d="M335.2,457.4c-4.1,2.5-9.2,4.7-11.5,5.1-6.9,1.1-8.2,1.6-6.6,2.6,2.4,1.5,12.2,1,16.4-1,5.4-2.4,13-11.2,9.8-11.1-.5,0-4.1,2-8.1,4.4Z"></path>
  <path class="st0" d="M489,337.3c-8.3,2.5-13.6,5.5-12.2,6.9s2.7.5,5.3-.1c11.3-2.6,25.9-.2,34.4,5.7,3.7,2.6,8.2,9.2,10.4,15.4,1,2.7.9,2.7-4-1.2-6.4-5-17.9-8.6-20.2-6.3-.4.3,3.3,2.6,8.3,5.1,14.2,6.9,21.1,16.3,21.8,29.7.6,10.8,2.4,11.7,11.2,5.9,13.3-8.8,16.2-13.7,17-28.2.5-9.6.7-10.4,3.3-12.8,1.7-1.5,2.6-3.2,2.3-4.1-.3-.8-.6-1.6-.6-1.8,0-.3-6.4-2.5-14.2-5-35.1-11.3-49.2-13.4-62.8-9.2Z"></path>
  <path class="st0" d="M476.3,365c-6.7,3.4-15.9,12.3-19.1,18.7-1.8,3.4-1.9,4.3-.8,5.8,1.7,2.4,4.3,1.3,5.7-2.2,3.5-9.2,10.7-18.3,17.3-21.8,2-1.1,3.6-2.3,3.6-2.7,0-1.1-.1-1.1-6.7,2.2Z"></path>
  <path class="st0" d="M493.4,370.7c-4.5,1.5-9,4-12.1,6.6-2.7,2.3-6.6,5.3-8.6,6.7-8.7,5.9-1.3,4.9,7.9-1.1,3.3-2.1,6.5-3.9,7.1-3.9s1.3,1.9,1.6,4.2c.4,2.8,1.5,5.1,3.6,7.1,2.6,2.6,3.7,3.1,8,3,8-.1,14.1-5.1,14.1-11.5s6.2,4.5,7.5,11.4c.7,3.9,2.3,5.2,4.6,3.8,1.9-1.3-.2-8.9-4.2-14.7-3-4.3-11.3-11.2-13.5-11.3-.7,0-2.5-.7-4-1.5-3.5-1.8-3.3-1.8-12,1.2Z"></path>
  <path class="st0" d="M574.3,417.9c-.6,1-6,5.6-12,10.1-19.5,15-22,18.4-18.8,26.6.9,2.4,2.1,4.4,2.5,4.4,1.4,0,2.1-1.8,1-2.5-1.7-1-1.1-6.6,1.1-10.1,1.1-1.8,6-6.5,10.9-10.4,9.5-7.6,14.1-12.3,16.5-17,1.7-3.3.7-4.2-1.2-1.1Z"></path>
  <path class="st0" d="M567.5,441.8c-9.1,4.2-10.1,4.9-11.5,8.2-1.6,3.8.3,7,5.1,9,4.4,1.9,7,.2,13.1-8.7,4.2-6.1,4.8-7.4,3.8-9.2-1.4-2.7-3.3-2.6-10.5.7Z"></path>
  <path class="st0" d="M598.3,446.2c-5.9,6.7-6.3,8.8-3.1,16.5,1.7,4.1,2.7,5.3,4.4,5.3s2.4-.9,3.3-4.4c1.5-5.9,1.4-16.9-.1-18.4s-2.2-1.5-4.5,1Z"></path>
  <path class="st0" d="M541,497.7c-6.1,1-12.8,3.4-13.3,4.6-.3.8-.1,2,.3,2.8.8,1.1,2.3.9,9.2-1.4,4.6-1.5,10-2.9,12.1-3.2,2.3-.4,3.7-1.1,3.4-1.8-.4-1.2-7.2-1.8-11.7-1Z"></path>
  <path class="st0" d="M567,497.7c0,2,9.1,6.3,15.5,7.3,11.6,1.9,21.3,9.3,23.6,18.2,1.6,5.8.7,6.9-2.9,3.6-3.5-3.4-16.9-10-25.3-12.6-7.3-2.3-25.4-4.6-27.1-3.6-.6.4,2,2.2,5.8,3.9,10.1,4.7,13,7.5,13.9,13.2.8,5.3,2.8,8.3,5.7,8.3s6.6,2.5,12.3,5.5c14,7.3,16.3,7.3,22.3,0,6.1-7.3,5.6-16.9-1.5-26.1-3.7-4.9-14.5-12.9-19.6-14.7-7.2-2.5-22.7-4.5-22.7-3Z"></path>
</svg></svg></g></g></svg></g></svg>